#N canvas 708 22 778 495 10;
#N canvas 876 593 450 300 bpm 0;
#X obj 92 92 metro 120;
#X obj 127 116 + 1;
#X obj 92 116 int;
#X floatatom 127 179 5 0 0 0 - - -;
#X obj 127 145 mod 16;
#X obj 127 206 outlet;
#X obj 92 34 inlet;
#X obj 143 34 inlet;
#X connect 0 0 2 0;
#X connect 1 0 4 0;
#X connect 2 0 1 0;
#X connect 3 0 2 1;
#X connect 3 0 5 0;
#X connect 4 0 3 0;
#X connect 6 0 0 0;
#X connect 7 0 0 1;
#X restore 79 -91 pd bpm;
#X obj 124 -91 s bpm;
#X obj 79 -116 tgl 15 0 empty empty empty 17 7 0 10 -262144 -1 -1 1
1;
#X obj 79 -47 tgl 20 0 empty empty empty 17 7 0 10 -262144 -1 -1 0
1;
#X obj 100 -47 tgl 20 0 empty empty empty 17 7 0 10 -262144 -1 -1 1
1;
#X obj 121 -47 tgl 20 0 empty empty empty 17 7 0 10 -262144 -1 -1 0
1;
#X obj 142 -47 tgl 20 0 empty empty empty 17 7 0 10 -262144 -1 -1 1
1;
#X obj 163 -47 tgl 20 0 empty empty empty 17 7 0 10 -262144 -1 -1 1
1;
#X obj 184 -47 tgl 20 0 empty empty empty 17 7 0 10 -262144 -1 -1 1
1;
#X obj 205 -47 tgl 20 0 empty empty empty 17 7 0 10 -262144 -1 -1 0
1;
#X obj 226 -47 tgl 20 0 empty empty empty 17 7 0 10 -262144 -1 -1 1
1;
#X obj 247 -47 tgl 20 0 empty empty empty 17 7 0 10 -262144 -1 -1 0
1;
#X obj 268 -47 tgl 20 0 empty empty empty 17 7 0 10 -262144 -1 -1 0
1;
#X obj 289 -47 tgl 20 0 empty empty empty 17 7 0 10 -262144 -1 -1 0
1;
#X obj 310 -47 tgl 20 0 empty empty empty 17 7 0 10 -262144 -1 -1 1
1;
#X obj 331 -47 tgl 20 0 empty empty empty 17 7 0 10 -262144 -1 -1 1
1;
#X obj 352 -47 tgl 20 0 empty empty empty 17 7 0 10 -262144 -1 -1 0
1;
#X obj 373 -47 tgl 20 0 empty empty empty 17 7 0 10 -262144 -1 -1 1
1;
#X obj 394 -47 tgl 20 0 empty empty empty 17 7 0 10 -262144 -1 -1 1
1;
#X obj 79 -20 s step;
#X msg 112 -118 125;
#N canvas 131 460 1206 419 stepsequencer 0;
#X obj 250 5 inlet;
#X obj 287 5 inlet;
#X obj 324 5 inlet;
#X obj 361 5 inlet;
#X obj 398 5 inlet;
#X obj 435 5 inlet;
#X obj 472 5 inlet;
#X obj 509 5 inlet;
#X obj 546 5 inlet;
#X obj 583 5 inlet;
#X obj 620 5 inlet;
#X obj 658 5 inlet;
#X obj 695 6 inlet;
#X obj 732 6 inlet;
#X obj 769 6 inlet;
#X obj 806 6 inlet;
#X obj 250 25 tgl 15 0 empty empty empty 17 7 0 10 -262144 -1 -1 0
1;
#X obj 287 25 tgl 15 0 empty empty empty 17 7 0 10 -262144 -1 -1 1
1;
#X obj 324 25 tgl 15 0 empty empty empty 17 7 0 10 -262144 -1 -1 0
1;
#X obj 361 25 tgl 15 0 empty empty empty 17 7 0 10 -262144 -1 -1 1
1;
#X obj 398 25 tgl 15 0 empty empty empty 17 7 0 10 -262144 -1 -1 1
1;
#X obj 435 26 tgl 15 0 empty empty empty 17 7 0 10 -262144 -1 -1 1
1;
#X obj 472 26 tgl 15 0 empty empty empty 17 7 0 10 -262144 -1 -1 0
1;
#X obj 509 26 tgl 15 0 empty empty empty 17 7 0 10 -262144 -1 -1 1
1;
#X obj 546 26 tgl 15 0 empty empty empty 17 7 0 10 -262144 -1 -1 0
1;
#X obj 583 26 tgl 15 0 empty empty empty 17 7 0 10 -262144 -1 -1 0
1;
#X obj 620 26 tgl 15 0 empty empty empty 17 7 0 10 -262144 -1 -1 0
1;
#X obj 658 25 tgl 15 0 empty empty empty 17 7 0 10 -262144 -1 -1 1
1;
#X obj 695 27 tgl 15 0 empty empty empty 17 7 0 10 -262144 -1 -1 1
1;
#X obj 732 27 tgl 15 0 empty empty empty 17 7 0 10 -262144 -1 -1 0
1;
#X obj 769 27 tgl 15 0 empty empty empty 17 7 0 10 -262144 -1 -1 1
1;
#X obj 806 27 tgl 15 0 empty empty empty 17 7 0 10 -262144 -1 -1 1
1;
#X obj 199 78 r step;
#X msg 250 44 1;
#X obj 476 150 select 1 2 3 4 5 6 7 8 9 10 11 12 13 14 15 16;
#X obj 476 173 tgl 15 0 empty empty empty 17 7 0 10 -262144 -1 -1 0
1;
#X msg 287 44 2;
#X msg 324 44 3;
#X msg 361 44 4;
#X msg 398 45 5;
#X msg 435 46 6;
#X msg 472 46 7;
#X msg 509 46 8;
#X obj 492 173 tgl 15 0 empty empty empty 17 7 0 10 -262144 -1 -1 1
1;
#X obj 509 173 tgl 15 0 empty empty empty 17 7 0 10 -262144 -1 -1 0
1;
#X obj 526 173 tgl 15 0 empty empty empty 17 7 0 10 -262144 -1 -1 1
1;
#X obj 542 173 tgl 15 0 empty empty empty 17 7 0 10 -262144 -1 -1 1
1;
#X obj 559 173 tgl 15 0 empty empty empty 17 7 0 10 -262144 -1 -1 1
1;
#X obj 576 173 tgl 15 0 empty empty empty 17 7 0 10 -262144 -1 -1 0
1;
#X obj 592 173 tgl 15 0 empty empty empty 17 7 0 10 -262144 -1 -1 1
1;
#N canvas 18 556 485 516 drums 0;
#X msg 130 208 goto \$1 \, this;
#X floatatom 130 177 5 0 0 0 - - -;
#X obj 130 251 msgfile;
#X obj 130 323 readsf~;
#X obj 130 357 dac~;
#X msg 130 122 bang;
#X msg 130 297 open \$1 \, 1;
#X msg 231 208 read drums.txt cr;
#X obj 130 85 inlet;
#X obj 231 185 loadbang;
#X obj 130 151 random 42;
#X text 245 68 1-22 HRDVSION;
#X text 246 87 23-42 BIRDWISE;
#X obj 195 151 + 1;
#X obj 221 151 s drum1;
#X connect 0 0 2 0;
#X connect 1 0 0 0;
#X connect 2 0 6 0;
#X connect 3 0 4 0;
#X connect 3 0 4 1;
#X connect 5 0 10 0;
#X connect 6 0 3 0;
#X connect 7 0 2 0;
#X connect 8 0 5 0;
#X connect 9 0 7 0;
#X connect 10 0 1 0;
#X connect 10 0 13 0;
#X connect 13 0 14 0;
#X restore 199 338 pd drums;
#X obj 199 150 select 1 2 3 4 5 6 7 8 9 10 11 12 13 14 15 16;
#X obj 199 103 + 1;
#X floatatom 199 126 5 0 0 0 - - -;
#X obj 199 174 bng 15 250 50 0 empty empty empty 17 7 0 10 -262144
-1 -1;
#X obj 199 319 bng 15 250 50 0 empty empty empty 17 7 0 10 -262144
-1 -1;
#X obj 199 296 spigot;
#X obj 609 173 tgl 15 0 empty empty empty 17 7 0 10 -262144 -1 -1 0
1;
#X obj 626 173 tgl 15 0 empty empty empty 17 7 0 10 -262144 -1 -1 0
1;
#X obj 642 173 tgl 15 0 empty empty empty 17 7 0 10 -262144 -1 -1 0
1;
#X obj 659 173 tgl 15 0 empty empty empty 17 7 0 10 -262144 -1 -1 1
1;
#X obj 676 173 tgl 15 0 empty empty empty 17 7 0 10 -262144 -1 -1 1
1;
#X obj 692 173 tgl 15 0 empty empty empty 17 7 0 10 -262144 -1 -1 0
1;
#X obj 709 173 tgl 15 0 empty empty empty 17 7 0 10 -262144 -1 -1 1
1;
#X obj 726 173 tgl 15 0 empty empty empty 17 7 0 10 -262144 -1 -1 1
1;
#X obj 215 174 bng 15 250 50 0 empty empty empty 17 7 0 10 -262144
-1 -1;
#X obj 232 174 bng 15 250 50 0 empty empty empty 17 7 0 10 -262144
-1 -1;
#X obj 249 174 bng 15 250 50 0 empty empty empty 17 7 0 10 -262144
-1 -1;
#X obj 265 174 bng 15 250 50 0 empty empty empty 17 7 0 10 -262144
-1 -1;
#X obj 282 174 bng 15 250 50 0 empty empty empty 17 7 0 10 -262144
-1 -1;
#X obj 299 174 bng 15 250 50 0 empty empty empty 17 7 0 10 -262144
-1 -1;
#X obj 315 174 bng 15 250 50 0 empty empty empty 17 7 0 10 -262144
-1 -1;
#X obj 332 174 bng 15 250 50 0 empty empty empty 17 7 0 10 -262144
-1 -1;
#X obj 349 174 bng 15 250 50 0 empty empty empty 17 7 0 10 -262144
-1 -1;
#X obj 365 174 bng 15 250 50 0 empty empty empty 17 7 0 10 -262144
-1 -1;
#X obj 382 174 bng 15 250 50 0 empty empty empty 17 7 0 10 -262144
-1 -1;
#X obj 399 174 bng 15 250 50 0 empty empty empty 17 7 0 10 -262144
-1 -1;
#X obj 415 174 bng 15 250 50 0 empty empty empty 17 7 0 10 -262144
-1 -1;
#X obj 432 174 bng 15 250 50 0 empty empty empty 17 7 0 10 -262144
-1 -1;
#X obj 449 174 bng 15 250 50 0 empty empty empty 17 7 0 10 -262144
-1 -1;
#X msg 546 47 9;
#X msg 583 48 10;
#X msg 620 46 11;
#X msg 658 44 12;
#X msg 695 46 13;
#X msg 732 46 14;
#X msg 769 46 15;
#X msg 806 47 16;
#X obj 255 319 bng 15 250 50 0 empty empty empty 17 7 0 10 -262144
-1 -1;
#X obj 255 296 spigot;
#X obj 312 319 bng 15 250 50 0 empty empty empty 17 7 0 10 -262144
-1 -1;
#X obj 312 296 spigot;
#X obj 368 319 bng 15 250 50 0 empty empty empty 17 7 0 10 -262144
-1 -1;
#X obj 368 296 spigot;
#X obj 425 318 bng 15 250 50 0 empty empty empty 17 7 0 10 -262144
-1 -1;
#X obj 425 295 spigot;
#X obj 481 318 bng 15 250 50 0 empty empty empty 17 7 0 10 -262144
-1 -1;
#X obj 481 295 spigot;
#X obj 538 318 bng 15 250 50 0 empty empty empty 17 7 0 10 -262144
-1 -1;
#X obj 538 295 spigot;
#X obj 594 318 bng 15 250 50 0 empty empty empty 17 7 0 10 -262144
-1 -1;
#X obj 594 295 spigot;
#X obj 649 317 bng 15 250 50 0 empty empty empty 17 7 0 10 -262144
-1 -1;
#X obj 649 294 spigot;
#X obj 705 317 bng 15 250 50 0 empty empty empty 17 7 0 10 -262144
-1 -1;
#X obj 705 294 spigot;
#X obj 762 317 bng 15 250 50 0 empty empty empty 17 7 0 10 -262144
-1 -1;
#X obj 762 294 spigot;
#X obj 818 317 bng 15 250 50 0 empty empty empty 17 7 0 10 -262144
-1 -1;
#X obj 818 294 spigot;
#X obj 875 316 bng 15 250 50 0 empty empty empty 17 7 0 10 -262144
-1 -1;
#X obj 875 293 spigot;
#X obj 931 316 bng 15 250 50 0 empty empty empty 17 7 0 10 -262144
-1 -1;
#X obj 931 293 spigot;
#X obj 988 316 bng 15 250 50 0 empty empty empty 17 7 0 10 -262144
-1 -1;
#X obj 988 293 spigot;
#X obj 1044 316 bng 15 250 50 0 empty empty empty 17 7 0 10 -262144
-1 -1;
#X obj 1044 293 spigot;
#N canvas 18 556 485 516 drums 0;
#X msg 130 208 goto \$1 \, this;
#X floatatom 130 177 5 0 0 0 - - -;
#X obj 130 251 msgfile;
#X obj 130 323 readsf~;
#X obj 130 357 dac~;
#X msg 130 122 bang;
#X msg 130 297 open \$1 \, 1;
#X msg 231 208 read drums.txt cr;
#X obj 130 85 inlet;
#X obj 231 185 loadbang;
#X obj 130 151 random 42;
#X text 245 68 1-22 HRDVSION;
#X text 246 87 23-42 BIRDWISE;
#X obj 195 151 + 1;
#X obj 221 151 s drum2;
#X connect 0 0 2 0;
#X connect 1 0 0 0;
#X connect 2 0 6 0;
#X connect 3 0 4 0;
#X connect 3 0 4 1;
#X connect 5 0 10 0;
#X connect 6 0 3 0;
#X connect 7 0 2 0;
#X connect 8 0 5 0;
#X connect 9 0 7 0;
#X connect 10 0 1 0;
#X connect 10 0 13 0;
#X connect 13 0 14 0;
#X restore 255 338 pd drums;
#N canvas 18 556 485 516 drums 0;
#X msg 130 208 goto \$1 \, this;
#X floatatom 130 177 5 0 0 0 - - -;
#X obj 130 251 msgfile;
#X obj 130 323 readsf~;
#X obj 130 357 dac~;
#X msg 130 122 bang;
#X msg 130 297 open \$1 \, 1;
#X msg 231 208 read drums.txt cr;
#X obj 130 85 inlet;
#X obj 231 185 loadbang;
#X obj 130 151 random 42;
#X text 245 68 1-22 HRDVSION;
#X text 246 87 23-42 BIRDWISE;
#X obj 195 151 + 1;
#X obj 221 151 s drum3;
#X connect 0 0 2 0;
#X connect 1 0 0 0;
#X connect 2 0 6 0;
#X connect 3 0 4 0;
#X connect 3 0 4 1;
#X connect 5 0 10 0;
#X connect 6 0 3 0;
#X connect 7 0 2 0;
#X connect 8 0 5 0;
#X connect 9 0 7 0;
#X connect 10 0 1 0;
#X connect 10 0 13 0;
#X connect 13 0 14 0;
#X restore 312 338 pd drums;
#N canvas 18 556 485 516 drums 0;
#X msg 130 208 goto \$1 \, this;
#X floatatom 130 177 5 0 0 0 - - -;
#X obj 130 251 msgfile;
#X obj 130 323 readsf~;
#X obj 130 357 dac~;
#X msg 130 122 bang;
#X msg 130 297 open \$1 \, 1;
#X msg 231 208 read drums.txt cr;
#X obj 130 85 inlet;
#X obj 231 185 loadbang;
#X obj 130 151 random 42;
#X text 245 68 1-22 HRDVSION;
#X text 246 87 23-42 BIRDWISE;
#X obj 195 151 + 1;
#X obj 221 151 s drum4;
#X connect 0 0 2 0;
#X connect 1 0 0 0;
#X connect 2 0 6 0;
#X connect 3 0 4 0;
#X connect 3 0 4 1;
#X connect 5 0 10 0;
#X connect 6 0 3 0;
#X connect 7 0 2 0;
#X connect 8 0 5 0;
#X connect 9 0 7 0;
#X connect 10 0 1 0;
#X connect 10 0 13 0;
#X connect 13 0 14 0;
#X restore 368 338 pd drums;
#N canvas 18 556 485 516 drums 0;
#X msg 130 208 goto \$1 \, this;
#X floatatom 130 177 5 0 0 0 - - -;
#X obj 130 251 msgfile;
#X obj 130 323 readsf~;
#X obj 130 357 dac~;
#X msg 130 122 bang;
#X msg 130 297 open \$1 \, 1;
#X msg 231 208 read drums.txt cr;
#X obj 130 85 inlet;
#X obj 231 185 loadbang;
#X obj 130 151 random 42;
#X text 245 68 1-22 HRDVSION;
#X text 246 87 23-42 BIRDWISE;
#X obj 195 151 + 1;
#X obj 221 151 s drum5;
#X connect 0 0 2 0;
#X connect 1 0 0 0;
#X connect 2 0 6 0;
#X connect 3 0 4 0;
#X connect 3 0 4 1;
#X connect 5 0 10 0;
#X connect 6 0 3 0;
#X connect 7 0 2 0;
#X connect 8 0 5 0;
#X connect 9 0 7 0;
#X connect 10 0 1 0;
#X connect 10 0 13 0;
#X connect 13 0 14 0;
#X restore 425 338 pd drums;
#N canvas 18 556 485 516 drums 0;
#X msg 130 208 goto \$1 \, this;
#X floatatom 130 177 5 0 0 0 - - -;
#X obj 130 251 msgfile;
#X obj 130 323 readsf~;
#X obj 130 357 dac~;
#X msg 130 122 bang;
#X msg 130 297 open \$1 \, 1;
#X msg 231 208 read drums.txt cr;
#X obj 130 85 inlet;
#X obj 231 185 loadbang;
#X obj 130 151 random 42;
#X text 245 68 1-22 HRDVSION;
#X text 246 87 23-42 BIRDWISE;
#X obj 195 151 + 1;
#X obj 221 151 s drum6;
#X connect 0 0 2 0;
#X connect 1 0 0 0;
#X connect 2 0 6 0;
#X connect 3 0 4 0;
#X connect 3 0 4 1;
#X connect 5 0 10 0;
#X connect 6 0 3 0;
#X connect 7 0 2 0;
#X connect 8 0 5 0;
#X connect 9 0 7 0;
#X connect 10 0 1 0;
#X connect 10 0 13 0;
#X connect 13 0 14 0;
#X restore 481 338 pd drums;
#N canvas 18 556 485 516 drums 0;
#X msg 130 208 goto \$1 \, this;
#X floatatom 130 177 5 0 0 0 - - -;
#X obj 130 251 msgfile;
#X obj 130 323 readsf~;
#X obj 130 357 dac~;
#X msg 130 122 bang;
#X msg 130 297 open \$1 \, 1;
#X msg 231 208 read drums.txt cr;
#X obj 130 85 inlet;
#X obj 231 185 loadbang;
#X obj 130 151 random 42;
#X text 245 68 1-22 HRDVSION;
#X text 246 87 23-42 BIRDWISE;
#X obj 195 151 + 1;
#X obj 221 151 s drum7;
#X connect 0 0 2 0;
#X connect 1 0 0 0;
#X connect 2 0 6 0;
#X connect 3 0 4 0;
#X connect 3 0 4 1;
#X connect 5 0 10 0;
#X connect 6 0 3 0;
#X connect 7 0 2 0;
#X connect 8 0 5 0;
#X connect 9 0 7 0;
#X connect 10 0 1 0;
#X connect 10 0 13 0;
#X connect 13 0 14 0;
#X restore 538 338 pd drums;
#N canvas 18 556 485 516 drums 0;
#X msg 130 208 goto \$1 \, this;
#X floatatom 130 177 5 0 0 0 - - -;
#X obj 130 251 msgfile;
#X obj 130 323 readsf~;
#X obj 130 357 dac~;
#X msg 130 122 bang;
#X msg 130 297 open \$1 \, 1;
#X msg 231 208 read drums.txt cr;
#X obj 130 85 inlet;
#X obj 231 185 loadbang;
#X obj 130 151 random 42;
#X text 245 68 1-22 HRDVSION;
#X text 246 87 23-42 BIRDWISE;
#X obj 195 151 + 1;
#X obj 221 151 s drum8;
#X connect 0 0 2 0;
#X connect 1 0 0 0;
#X connect 2 0 6 0;
#X connect 3 0 4 0;
#X connect 3 0 4 1;
#X connect 5 0 10 0;
#X connect 6 0 3 0;
#X connect 7 0 2 0;
#X connect 8 0 5 0;
#X connect 9 0 7 0;
#X connect 10 0 1 0;
#X connect 10 0 13 0;
#X connect 13 0 14 0;
#X restore 594 338 pd drums;
#N canvas 18 556 485 516 drums 0;
#X msg 130 208 goto \$1 \, this;
#X floatatom 130 177 5 0 0 0 - - -;
#X obj 130 251 msgfile;
#X obj 130 323 readsf~;
#X obj 130 357 dac~;
#X msg 130 122 bang;
#X msg 130 297 open \$1 \, 1;
#X msg 231 208 read drums.txt cr;
#X obj 130 85 inlet;
#X obj 231 185 loadbang;
#X obj 130 151 random 42;
#X text 245 68 1-22 HRDVSION;
#X text 246 87 23-42 BIRDWISE;
#X obj 195 151 + 1;
#X obj 221 151 s drum9;
#X connect 0 0 2 0;
#X connect 1 0 0 0;
#X connect 2 0 6 0;
#X connect 3 0 4 0;
#X connect 3 0 4 1;
#X connect 5 0 10 0;
#X connect 6 0 3 0;
#X connect 7 0 2 0;
#X connect 8 0 5 0;
#X connect 9 0 7 0;
#X connect 10 0 1 0;
#X connect 10 0 13 0;
#X connect 13 0 14 0;
#X restore 649 338 pd drums;
#N canvas 18 556 485 516 drums 0;
#X msg 130 208 goto \$1 \, this;
#X floatatom 130 177 5 0 0 0 - - -;
#X obj 130 251 msgfile;
#X obj 130 323 readsf~;
#X obj 130 357 dac~;
#X msg 130 122 bang;
#X msg 130 297 open \$1 \, 1;
#X msg 231 208 read drums.txt cr;
#X obj 130 85 inlet;
#X obj 231 185 loadbang;
#X obj 130 151 random 42;
#X text 245 68 1-22 HRDVSION;
#X text 246 87 23-42 BIRDWISE;
#X obj 195 151 + 1;
#X obj 221 151 s drum10;
#X connect 0 0 2 0;
#X connect 1 0 0 0;
#X connect 2 0 6 0;
#X connect 3 0 4 0;
#X connect 3 0 4 1;
#X connect 5 0 10 0;
#X connect 6 0 3 0;
#X connect 7 0 2 0;
#X connect 8 0 5 0;
#X connect 9 0 7 0;
#X connect 10 0 1 0;
#X connect 10 0 13 0;
#X connect 13 0 14 0;
#X restore 705 338 pd drums;
#N canvas 18 556 485 516 drums 0;
#X msg 130 208 goto \$1 \, this;
#X floatatom 130 177 5 0 0 0 - - -;
#X obj 130 251 msgfile;
#X obj 130 323 readsf~;
#X obj 130 357 dac~;
#X msg 130 122 bang;
#X msg 130 297 open \$1 \, 1;
#X msg 231 208 read drums.txt cr;
#X obj 130 85 inlet;
#X obj 231 185 loadbang;
#X obj 130 151 random 42;
#X text 245 68 1-22 HRDVSION;
#X text 246 87 23-42 BIRDWISE;
#X obj 195 151 + 1;
#X obj 221 151 s drum11;
#X connect 0 0 2 0;
#X connect 1 0 0 0;
#X connect 2 0 6 0;
#X connect 3 0 4 0;
#X connect 3 0 4 1;
#X connect 5 0 10 0;
#X connect 6 0 3 0;
#X connect 7 0 2 0;
#X connect 8 0 5 0;
#X connect 9 0 7 0;
#X connect 10 0 1 0;
#X connect 10 0 13 0;
#X connect 13 0 14 0;
#X restore 762 338 pd drums;
#N canvas 18 556 485 516 drums 0;
#X msg 130 208 goto \$1 \, this;
#X floatatom 130 177 5 0 0 0 - - -;
#X obj 130 251 msgfile;
#X obj 130 323 readsf~;
#X obj 130 357 dac~;
#X msg 130 122 bang;
#X msg 130 297 open \$1 \, 1;
#X msg 231 208 read drums.txt cr;
#X obj 130 85 inlet;
#X obj 231 185 loadbang;
#X obj 130 151 random 42;
#X text 245 68 1-22 HRDVSION;
#X text 246 87 23-42 BIRDWISE;
#X obj 195 151 + 1;
#X obj 221 151 s drum12;
#X connect 0 0 2 0;
#X connect 1 0 0 0;
#X connect 2 0 6 0;
#X connect 3 0 4 0;
#X connect 3 0 4 1;
#X connect 5 0 10 0;
#X connect 6 0 3 0;
#X connect 7 0 2 0;
#X connect 8 0 5 0;
#X connect 9 0 7 0;
#X connect 10 0 1 0;
#X connect 10 0 13 0;
#X connect 13 0 14 0;
#X restore 818 338 pd drums;
#N canvas 18 556 485 516 drums 0;
#X msg 130 208 goto \$1 \, this;
#X floatatom 130 177 5 0 0 0 - - -;
#X obj 130 251 msgfile;
#X obj 130 323 readsf~;
#X obj 130 357 dac~;
#X msg 130 122 bang;
#X msg 130 297 open \$1 \, 1;
#X msg 231 208 read drums.txt cr;
#X obj 130 85 inlet;
#X obj 231 185 loadbang;
#X obj 130 151 random 42;
#X text 245 68 1-22 HRDVSION;
#X text 246 87 23-42 BIRDWISE;
#X obj 195 151 + 1;
#X obj 221 151 s drum13;
#X connect 0 0 2 0;
#X connect 1 0 0 0;
#X connect 2 0 6 0;
#X connect 3 0 4 0;
#X connect 3 0 4 1;
#X connect 5 0 10 0;
#X connect 6 0 3 0;
#X connect 7 0 2 0;
#X connect 8 0 5 0;
#X connect 9 0 7 0;
#X connect 10 0 1 0;
#X connect 10 0 13 0;
#X connect 13 0 14 0;
#X restore 875 338 pd drums;
#N canvas 18 556 485 516 drums 0;
#X msg 130 208 goto \$1 \, this;
#X floatatom 130 177 5 0 0 0 - - -;
#X obj 130 251 msgfile;
#X obj 130 323 readsf~;
#X obj 130 357 dac~;
#X msg 130 122 bang;
#X msg 130 297 open \$1 \, 1;
#X msg 231 208 read drums.txt cr;
#X obj 130 85 inlet;
#X obj 231 185 loadbang;
#X obj 130 151 random 42;
#X text 245 68 1-22 HRDVSION;
#X text 246 87 23-42 BIRDWISE;
#X obj 195 151 + 1;
#X obj 221 151 s drum14;
#X connect 0 0 2 0;
#X connect 1 0 0 0;
#X connect 2 0 6 0;
#X connect 3 0 4 0;
#X connect 3 0 4 1;
#X connect 5 0 10 0;
#X connect 6 0 3 0;
#X connect 7 0 2 0;
#X connect 8 0 5 0;
#X connect 9 0 7 0;
#X connect 10 0 1 0;
#X connect 10 0 13 0;
#X connect 13 0 14 0;
#X restore 931 338 pd drums;
#N canvas 18 556 485 516 drums 0;
#X msg 130 208 goto \$1 \, this;
#X floatatom 130 177 5 0 0 0 - - -;
#X obj 130 251 msgfile;
#X obj 130 323 readsf~;
#X obj 130 357 dac~;
#X msg 130 122 bang;
#X msg 130 297 open \$1 \, 1;
#X msg 231 208 read drums.txt cr;
#X obj 130 85 inlet;
#X obj 231 185 loadbang;
#X obj 130 151 random 42;
#X text 245 68 1-22 HRDVSION;
#X text 246 87 23-42 BIRDWISE;
#X obj 195 151 + 1;
#X obj 221 151 s drum15;
#X connect 0 0 2 0;
#X connect 1 0 0 0;
#X connect 2 0 6 0;
#X connect 3 0 4 0;
#X connect 3 0 4 1;
#X connect 5 0 10 0;
#X connect 6 0 3 0;
#X connect 7 0 2 0;
#X connect 8 0 5 0;
#X connect 9 0 7 0;
#X connect 10 0 1 0;
#X connect 10 0 13 0;
#X connect 13 0 14 0;
#X restore 988 338 pd drums;
#N canvas 18 556 485 516 drums 0;
#X msg 130 208 goto \$1 \, this;
#X floatatom 130 177 5 0 0 0 - - -;
#X obj 130 251 msgfile;
#X obj 130 323 readsf~;
#X obj 130 357 dac~;
#X msg 130 122 bang;
#X msg 130 297 open \$1 \, 1;
#X msg 231 208 read drums.txt cr;
#X obj 130 85 inlet;
#X obj 231 185 loadbang;
#X obj 130 151 random 42;
#X text 245 68 1-22 HRDVSION;
#X text 246 87 23-42 BIRDWISE;
#X obj 195 151 + 1;
#X obj 221 151 s drum16;
#X connect 0 0 2 0;
#X connect 1 0 0 0;
#X connect 2 0 6 0;
#X connect 3 0 4 0;
#X connect 3 0 4 1;
#X connect 5 0 10 0;
#X connect 6 0 3 0;
#X connect 7 0 2 0;
#X connect 8 0 5 0;
#X connect 9 0 7 0;
#X connect 10 0 1 0;
#X connect 10 0 13 0;
#X connect 13 0 14 0;
#X restore 1044 338 pd drums;
#X connect 0 0 16 0;
#X connect 1 0 17 0;
#X connect 2 0 18 0;
#X connect 3 0 19 0;
#X connect 4 0 20 0;
#X connect 5 0 21 0;
#X connect 6 0 22 0;
#X connect 7 0 23 0;
#X connect 8 0 24 0;
#X connect 9 0 25 0;
#X connect 10 0 26 0;
#X connect 11 0 27 0;
#X connect 12 0 28 0;
#X connect 13 0 29 0;
#X connect 14 0 30 0;
#X connect 15 0 31 0;
#X connect 16 0 33 0;
#X connect 17 0 36 0;
#X connect 18 0 37 0;
#X connect 19 0 38 0;
#X connect 20 0 39 0;
#X connect 21 0 40 0;
#X connect 22 0 41 0;
#X connect 23 0 42 0;
#X connect 24 0 80 0;
#X connect 25 0 81 0;
#X connect 26 0 82 0;
#X connect 27 0 83 0;
#X connect 28 0 84 0;
#X connect 29 0 85 0;
#X connect 30 0 86 0;
#X connect 31 0 87 0;
#X connect 32 0 52 0;
#X connect 33 0 34 0;
#X connect 34 0 35 0;
#X connect 34 1 43 0;
#X connect 34 2 44 0;
#X connect 34 3 45 0;
#X connect 34 4 46 0;
#X connect 34 5 47 0;
#X connect 34 6 48 0;
#X connect 34 7 49 0;
#X connect 34 8 57 0;
#X connect 34 9 58 0;
#X connect 34 10 59 0;
#X connect 34 11 60 0;
#X connect 34 12 61 0;
#X connect 34 13 62 0;
#X connect 34 14 63 0;
#X connect 34 15 64 0;
#X connect 35 0 56 1;
#X connect 36 0 34 0;
#X connect 37 0 34 0;
#X connect 38 0 34 0;
#X connect 39 0 34 0;
#X connect 40 0 34 0;
#X connect 41 0 34 0;
#X connect 42 0 34 0;
#X connect 43 0 89 1;
#X connect 44 0 91 1;
#X connect 45 0 93 1;
#X connect 46 0 95 1;
#X connect 47 0 97 1;
#X connect 48 0 99 1;
#X connect 49 0 101 1;
#X connect 51 0 54 0;
#X connect 51 1 65 0;
#X connect 51 2 66 0;
#X connect 51 3 67 0;
#X connect 51 4 68 0;
#X connect 51 5 69 0;
#X connect 51 6 70 0;
#X connect 51 7 71 0;
#X connect 51 8 72 0;
#X connect 51 9 73 0;
#X connect 51 10 74 0;
#X connect 51 11 75 0;
#X connect 51 12 76 0;
#X connect 51 13 77 0;
#X connect 51 14 78 0;
#X connect 51 15 79 0;
#X connect 52 0 53 0;
#X connect 53 0 51 0;
#X connect 54 0 56 0;
#X connect 55 0 50 0;
#X connect 56 0 55 0;
#X connect 57 0 103 1;
#X connect 58 0 105 1;
#X connect 59 0 107 1;
#X connect 60 0 109 1;
#X connect 61 0 111 1;
#X connect 62 0 113 1;
#X connect 63 0 115 1;
#X connect 64 0 117 1;
#X connect 65 0 89 0;
#X connect 66 0 91 0;
#X connect 67 0 93 0;
#X connect 68 0 95 0;
#X connect 69 0 97 0;
#X connect 70 0 99 0;
#X connect 71 0 101 0;
#X connect 72 0 103 0;
#X connect 73 0 105 0;
#X connect 74 0 107 0;
#X connect 75 0 109 0;
#X connect 76 0 111 0;
#X connect 77 0 113 0;
#X connect 78 0 115 0;
#X connect 79 0 117 0;
#X connect 80 0 34 0;
#X connect 81 0 34 0;
#X connect 82 0 34 0;
#X connect 83 0 34 0;
#X connect 84 0 34 0;
#X connect 85 0 34 0;
#X connect 86 0 34 0;
#X connect 87 0 34 0;
#X connect 88 0 118 0;
#X connect 89 0 88 0;
#X connect 90 0 119 0;
#X connect 91 0 90 0;
#X connect 92 0 120 0;
#X connect 93 0 92 0;
#X connect 94 0 121 0;
#X connect 95 0 94 0;
#X connect 96 0 122 0;
#X connect 97 0 96 0;
#X connect 98 0 123 0;
#X connect 99 0 98 0;
#X connect 100 0 124 0;
#X connect 101 0 100 0;
#X connect 102 0 125 0;
#X connect 103 0 102 0;
#X connect 104 0 126 0;
#X connect 105 0 104 0;
#X connect 106 0 127 0;
#X connect 107 0 106 0;
#X connect 108 0 128 0;
#X connect 109 0 108 0;
#X connect 110 0 129 0;
#X connect 111 0 110 0;
#X connect 112 0 130 0;
#X connect 113 0 112 0;
#X connect 114 0 131 0;
#X connect 115 0 114 0;
#X connect 116 0 132 0;
#X connect 117 0 116 0;
#X restore 192 -20 pd stepsequencer;
#N canvas 19 559 484 592 randompatterns 0;
#X obj 94 33 r step;
#X obj 129 127 + 1;
#X floatatom 129 190 5 0 0 0 - - -;
#X obj 94 94 bng 15 250 50 0 empty empty empty 17 7 0 10 -262144 -1
-1;
#X obj 94 67 sel 15;
#X obj 94 127 f;
#X obj 164 278 + 1;
#X obj 129 245 bng 15 250 50 0 empty empty empty 17 7 0 10 -262144
-1 -1;
#X obj 129 218 sel 15;
#X obj 129 278 f;
#X obj 164 342 bng 15 250 50 0 empty empty empty 17 7 0 10 -262144
-1 -1;
#X obj 164 369 random 17;
#X obj 68 425 sel 1;
#X obj 68 447 tgl 15 0 empty empty empty 17 7 0 10 -262144 -1 -1 0
1;
#X obj 68 467 outlet;
#X obj 111 447 tgl 15 0 empty empty empty 17 7 0 10 -262144 -1 -1 0
1;
#X obj 111 467 outlet;
#X obj 111 425 sel 2;
#X obj 154 447 tgl 15 0 empty empty empty 17 7 0 10 -262144 -1 -1 1
1;
#X obj 154 467 outlet;
#X obj 197 447 tgl 15 0 empty empty empty 17 7 0 10 -262144 -1 -1 0
1;
#X obj 197 467 outlet;
#X obj 154 425 sel 3;
#X obj 197 425 sel 4;
#X obj 240 447 tgl 15 0 empty empty empty 17 7 0 10 -262144 -1 -1 0
1;
#X obj 240 467 outlet;
#X obj 283 447 tgl 15 0 empty empty empty 17 7 0 10 -262144 -1 -1 0
1;
#X obj 283 467 outlet;
#X obj 326 447 tgl 15 0 empty empty empty 17 7 0 10 -262144 -1 -1 1
1;
#X obj 326 467 outlet;
#X obj 369 447 tgl 15 0 empty empty empty 17 7 0 10 -262144 -1 -1 1
1;
#X obj 369 467 outlet;
#X obj 240 425 sel 5;
#X obj 283 425 sel 6;
#X obj 326 425 sel 7;
#X obj 369 425 sel 8;
#X obj 69 511 tgl 15 0 empty empty empty 17 7 0 10 -262144 -1 -1 1
1;
#X obj 69 531 outlet;
#X obj 112 511 tgl 15 0 empty empty empty 17 7 0 10 -262144 -1 -1 1
1;
#X obj 112 531 outlet;
#X obj 155 511 tgl 15 0 empty empty empty 17 7 0 10 -262144 -1 -1 1
1;
#X obj 155 531 outlet;
#X obj 198 511 tgl 15 0 empty empty empty 17 7 0 10 -262144 -1 -1 1
1;
#X obj 198 531 outlet;
#X obj 241 511 tgl 15 0 empty empty empty 17 7 0 10 -262144 -1 -1 0
1;
#X obj 241 531 outlet;
#X obj 284 511 tgl 15 0 empty empty empty 17 7 0 10 -262144 -1 -1 1
1;
#X obj 284 531 outlet;
#X obj 327 511 tgl 15 0 empty empty empty 17 7 0 10 -262144 -1 -1 0
1;
#X obj 327 531 outlet;
#X obj 370 511 tgl 15 0 empty empty empty 17 7 0 10 -262144 -1 -1 1
1;
#X obj 370 531 outlet;
#X obj 69 489 sel 9;
#X obj 112 489 sel 10;
#X obj 155 489 sel 11;
#X obj 198 489 sel 12;
#X obj 241 489 sel 13;
#X obj 284 489 sel 14;
#X obj 327 489 sel 15;
#X obj 370 489 sel 16;
#X floatatom 216 309 5 0 0 0 - - -;
#X obj 129 158 mod 16;
#X obj 164 309 mod 16;
#X obj 183 341 loadbang;
#X obj 325 260 tgl 15 0 empty empty empty 17 7 0 10 -262144 -1 -1 0
1;
#X obj 325 279 sel 1 0;
#X obj 325 327 s rythym;
#X obj 344 304 s melody;
#X connect 0 0 4 0;
#X connect 1 0 61 0;
#X connect 2 0 8 0;
#X connect 3 0 5 0;
#X connect 4 0 3 0;
#X connect 5 0 1 0;
#X connect 6 0 62 0;
#X connect 7 0 9 0;
#X connect 7 0 64 0;
#X connect 8 0 7 0;
#X connect 9 0 6 0;
#X connect 10 0 11 0;
#X connect 11 0 12 0;
#X connect 11 0 17 0;
#X connect 11 0 22 0;
#X connect 11 0 23 0;
#X connect 11 0 32 0;
#X connect 11 0 33 0;
#X connect 11 0 34 0;
#X connect 11 0 35 0;
#X connect 11 0 52 0;
#X connect 11 0 53 0;
#X connect 11 0 54 0;
#X connect 11 0 55 0;
#X connect 11 0 56 0;
#X connect 11 0 57 0;
#X connect 11 0 58 0;
#X connect 11 0 59 0;
#X connect 12 0 13 0;
#X connect 13 0 14 0;
#X connect 15 0 16 0;
#X connect 17 0 15 0;
#X connect 18 0 19 0;
#X connect 20 0 21 0;
#X connect 22 0 18 0;
#X connect 23 0 20 0;
#X connect 24 0 25 0;
#X connect 26 0 27 0;
#X connect 28 0 29 0;
#X connect 30 0 31 0;
#X connect 32 0 24 0;
#X connect 33 0 26 0;
#X connect 34 0 28 0;
#X connect 35 0 30 0;
#X connect 36 0 37 0;
#X connect 38 0 39 0;
#X connect 40 0 41 0;
#X connect 42 0 43 0;
#X connect 44 0 45 0;
#X connect 46 0 47 0;
#X connect 48 0 49 0;
#X connect 50 0 51 0;
#X connect 52 0 36 0;
#X connect 53 0 38 0;
#X connect 54 0 40 0;
#X connect 55 0 42 0;
#X connect 56 0 44 0;
#X connect 57 0 46 0;
#X connect 58 0 48 0;
#X connect 59 0 50 0;
#X connect 61 0 2 0;
#X connect 61 0 5 1;
#X connect 62 0 9 1;
#X connect 62 0 10 0;
#X connect 62 0 60 0;
#X connect 63 0 11 0;
#X connect 64 0 65 0;
#X connect 65 0 66 0;
#X connect 65 1 67 0;
#X restore 187 -91 pd randompatterns;
#X obj -26 -343 cnv 15 100 100 empty empty empty 20 12 0 14 -162280
-66577 0;
#X msg -3 -299 \; pd dsp \$1;
#X obj -3 -322 tgl 20 0 empty empty empty 25 8 0 8 -258699 -1 -1 1
1;
#X obj 79 -70 hradio 21 1 0 16 empty empty empty 0 -8 0 10 -258113
-1 -1 7;
#X obj 76 -235 cnv 15 100 100 empty empty empty 20 12 0 14 -162280
-66577 0;
#N canvas 621 22 283 348 rythyms 0;
#X msg 1 35 goto \$1 \, this;
#X floatatom 1 4 5 0 0 0 - - -;
#X obj 1 78 msgfile;
#X obj 1 132 readsf~;
#X obj 63 -22 + 1;
#X msg 1 106 open \$1 \, 1;
#X msg 102 35 read rythyms.txt cr;
#X obj 78 133 inlet;
#X obj 102 9 loadbang;
#X obj 1 200 dac~;
#X obj 78 168 vsl 15 45 0 1 0 0 empty empty empty 0 -9 0 10 -228856
-1 -1 4400 1;
#X obj 1 166 *~ \$1;
#X obj 40 167 *~ \$1;
#X obj 1 -47 bng 15 250 50 0 empty empty empty 17 7 0 10 -262144 -1
-1;
#X obj 1 -74 r rythym;
#X text 164 -51 1-6 HRDVSION;
#X text 167 -37 7-22 BIRDWISE;
#X obj 53 79 print RYTHYM;
#X obj 89 -22 s numRythym;
#X text 169 -19 23-28 TLL;
#X obj 1 -22 random 28;
#X connect 0 0 2 0;
#X connect 1 0 0 0;
#X connect 2 0 5 0;
#X connect 3 0 11 0;
#X connect 3 0 12 0;
#X connect 4 0 18 0;
#X connect 5 0 3 0;
#X connect 6 0 2 0;
#X connect 7 0 10 0;
#X connect 8 0 6 0;
#X connect 10 0 11 1;
#X connect 10 0 12 1;
#X connect 11 0 9 0;
#X connect 12 0 9 1;
#X connect 13 0 20 0;
#X connect 14 0 13 0;
#X connect 20 0 1 0;
#X connect 20 0 4 0;
#X restore 98 -182 pd rythyms;
#X obj 98 -213 tgl 20 0 empty empty empty 17 7 0 10 -258113 -1 -1 1
1;
#X obj 184 -235 cnv 15 100 100 empty empty empty 20 12 0 14 -162280
-66577 0;
#N canvas 613 22 310 347 melodies 0;
#X msg 16 121 goto \$1 \, this;
#X floatatom 16 90 5 0 0 0 - - -;
#X obj 16 164 msgfile;
#X obj 16 226 readsf~;
#X obj 78 64 + 1;
#X msg 16 195 open \$1 \, 1;
#X msg 117 121 read melodies.txt cr;
#X obj 93 225 inlet;
#X obj 16 35 bng 15 250 50 0 empty empty empty 17 7 0 10 -262144 -1
-1;
#X obj 117 99 loadbang;
#X obj 16 290 dac~;
#X obj 93 258 vsl 15 45 0 1 0 0 empty empty empty 0 -9 0 10 -228856
-1 -1 4400 1;
#X obj 16 256 *~ \$1;
#X obj 55 257 *~ \$1;
#X obj 16 8 r melody;
#X text 199 16 1-5 HRDVSION;
#X text 200 32 6-12 BIRDWISE;
#X obj 67 164 print MELODY;
#X obj 104 64 s numMelody;
#X text 202 47 13-21 TLL;
#X obj 16 64 random 21;
#X connect 0 0 2 0;
#X connect 1 0 0 0;
#X connect 2 0 5 0;
#X connect 3 0 12 0;
#X connect 3 0 13 0;
#X connect 4 0 18 0;
#X connect 5 0 3 0;
#X connect 6 0 2 0;
#X connect 7 0 11 0;
#X connect 8 0 20 0;
#X connect 9 0 6 0;
#X connect 11 0 12 1;
#X connect 11 0 13 1;
#X connect 12 0 10 0;
#X connect 13 0 10 1;
#X connect 14 0 8 0;
#X connect 20 0 1 0;
#X connect 20 0 4 0;
#X restore 202 -181 pd melodies;
#X obj 202 -211 tgl 20 0 empty empty empty 17 7 0 10 -258113 -1 -1
1 1;
#X obj 293 -235 cnv 15 150 100 empty empty empty 20 12 0 14 -162280
-66577 0;
#N canvas 58 583 1468 476 hitCountMelody 0;
#X obj 899 31 cnv 15 450 400 empty empty empty 20 12 0 14 -258113 -66577
0;
#X obj 1072 48 r numMelody;
#X floatatom 1027 165 5 0 0 0 - - -;
#X floatatom 1061 165 5 0 0 0 - - -;
#X floatatom 1095 165 5 0 0 0 - - -;
#X floatatom 1129 165 5 0 0 0 - - -;
#X floatatom 1163 165 5 0 0 0 - - -;
#X floatatom 1197 166 5 0 0 0 - - -;
#X floatatom 1231 166 5 0 0 0 - - -;
#X obj 1027 264 +;
#X obj 1027 190 +;
#X obj 1027 213 +;
#X obj 1027 237 +;
#X obj 1027 311 +;
#X obj 1027 287 +;
#X floatatom 1027 378 5 0 0 0 - - -;
#X msg 912 136 bang;
#X text 1147 48 LARSON;
#X obj 467 30 cnv 15 400 400 empty empty empty 20 12 0 14 -258113 -66577
0;
#X obj 648 64 r numMelody;
#X obj 648 90 select 6 7 8 9 10 11 12;
#X text 723 64 BIRDWISE;
#N canvas 538 691 532 225 hitCount 0;
#X obj 109 63 inlet;
#X obj 109 89 i;
#X obj 109 112 + 1;
#X floatatom 109 137 5 0 0 0 - - -;
#X obj 109 161 outlet;
#X obj 162 63 inlet;
#X obj 162 89 i;
#X obj 162 112 + 1;
#X floatatom 162 137 5 0 0 0 - - -;
#X obj 162 161 outlet;
#X obj 210 63 inlet;
#X obj 210 89 i;
#X obj 210 112 + 1;
#X floatatom 210 137 5 0 0 0 - - -;
#X obj 210 161 outlet;
#X obj 263 63 inlet;
#X obj 263 89 i;
#X obj 263 112 + 1;
#X floatatom 263 137 5 0 0 0 - - -;
#X obj 263 161 outlet;
#X obj 310 63 inlet;
#X obj 310 89 i;
#X obj 310 112 + 1;
#X floatatom 310 137 5 0 0 0 - - -;
#X obj 310 161 outlet;
#X obj 354 64 inlet;
#X obj 354 90 i;
#X obj 354 113 + 1;
#X floatatom 354 138 5 0 0 0 - - -;
#X obj 354 162 outlet;
#X obj 398 64 inlet;
#X obj 398 90 i;
#X obj 398 113 + 1;
#X floatatom 398 138 5 0 0 0 - - -;
#X obj 398 162 outlet;
#X connect 0 0 1 0;
#X connect 1 0 2 0;
#X connect 2 0 1 1;
#X connect 2 0 3 0;
#X connect 3 0 4 0;
#X connect 5 0 6 0;
#X connect 6 0 7 0;
#X connect 7 0 6 1;
#X connect 7 0 8 0;
#X connect 8 0 9 0;
#X connect 10 0 11 0;
#X connect 11 0 12 0;
#X connect 12 0 11 1;
#X connect 12 0 13 0;
#X connect 13 0 14 0;
#X connect 15 0 16 0;
#X connect 16 0 17 0;
#X connect 17 0 16 1;
#X connect 17 0 18 0;
#X connect 18 0 19 0;
#X connect 20 0 21 0;
#X connect 21 0 22 0;
#X connect 22 0 21 1;
#X connect 22 0 23 0;
#X connect 23 0 24 0;
#X connect 25 0 26 0;
#X connect 26 0 27 0;
#X connect 27 0 26 1;
#X connect 27 0 28 0;
#X connect 28 0 29 0;
#X connect 30 0 31 0;
#X connect 31 0 32 0;
#X connect 32 0 31 1;
#X connect 32 0 33 0;
#X connect 33 0 34 0;
#X restore 648 138 pd hitCount;
#X floatatom 603 181 5 0 0 0 - - -;
#X floatatom 637 181 5 0 0 0 - - -;
#X floatatom 671 181 5 0 0 0 - - -;
#X floatatom 705 181 5 0 0 0 - - -;
#X floatatom 739 181 5 0 0 0 - - -;
#X floatatom 773 182 5 0 0 0 - - -;
#X floatatom 807 182 5 0 0 0 - - -;
#X obj 603 280 +;
#X obj 603 206 +;
#X obj 603 229 +;
#X obj 603 253 +;
#X obj 603 330 +;
#X obj 603 303 +;
#X floatatom 603 356 5 0 0 0 - - -;
#X msg 493 153 bang;
#X obj 603 382 s melBIRDWISE;
#X obj 32 29 cnv 15 400 400 empty empty empty 20 12 0 14 -258113 -66577
0;
#X floatatom 173 181 5 0 0 0 - - -;
#X floatatom 207 181 5 0 0 0 - - -;
#X floatatom 241 181 5 0 0 0 - - -;
#X floatatom 275 181 5 0 0 0 - - -;
#X floatatom 309 181 5 0 0 0 - - -;
#X obj 204 64 r numMelody;
#X obj 204 90 select 1 2 3 4 5;
#N canvas 1063 563 532 225 hitCount 0;
#X obj 109 63 inlet;
#X obj 109 89 i;
#X obj 109 112 + 1;
#X floatatom 109 137 5 0 0 0 - - -;
#X obj 109 161 outlet;
#X obj 162 63 inlet;
#X obj 162 89 i;
#X obj 162 112 + 1;
#X floatatom 162 137 5 0 0 0 - - -;
#X obj 162 161 outlet;
#X obj 210 63 inlet;
#X obj 210 89 i;
#X obj 210 112 + 1;
#X floatatom 210 137 5 0 0 0 - - -;
#X obj 210 161 outlet;
#X obj 263 63 inlet;
#X obj 263 89 i;
#X obj 263 112 + 1;
#X floatatom 263 137 5 0 0 0 - - -;
#X obj 263 161 outlet;
#X obj 310 63 inlet;
#X obj 310 89 i;
#X obj 310 112 + 1;
#X floatatom 310 137 5 0 0 0 - - -;
#X obj 310 161 outlet;
#X connect 0 0 1 0;
#X connect 1 0 2 0;
#X connect 2 0 1 1;
#X connect 2 0 3 0;
#X connect 3 0 4 0;
#X connect 5 0 6 0;
#X connect 6 0 7 0;
#X connect 7 0 6 1;
#X connect 7 0 8 0;
#X connect 8 0 9 0;
#X connect 10 0 11 0;
#X connect 11 0 12 0;
#X connect 12 0 11 1;
#X connect 12 0 13 0;
#X connect 13 0 14 0;
#X connect 15 0 16 0;
#X connect 16 0 17 0;
#X connect 17 0 16 1;
#X connect 17 0 18 0;
#X connect 18 0 19 0;
#X connect 20 0 21 0;
#X connect 21 0 22 0;
#X connect 22 0 21 1;
#X connect 22 0 23 0;
#X connect 23 0 24 0;
#X restore 204 135 pd hitCount;
#X text 279 62 HRDVSION;
#X obj 173 286 +;
#X floatatom 173 311 5 0 0 0 - - -;
#X obj 173 212 +;
#X obj 173 235 +;
#X obj 173 259 +;
#X msg 101 151 bang;
#X obj 101 180 t b b b b;
#X obj 173 345 s melHRDVSION;
#X obj 1072 74 select 13 14 15 16 17 18 19 20 21;
#X floatatom 1266 167 5 0 0 0 - - -;
#X floatatom 1300 167 5 0 0 0 - - -;
#X obj 1027 356 +;
#X obj 1027 333 +;
#X obj 1027 400 s melTLL;
#X obj 493 182 t b b b b b b;
#X obj 912 165 t b b b b b b b b;
#N canvas 538 691 532 225 hitCoun 0;
#X obj 109 63 inlet;
#X obj 109 89 i;
#X obj 109 112 + 1;
#X floatatom 109 137 5 0 0 0 - - -;
#X obj 109 161 outlet;
#X obj 162 63 inlet;
#X obj 162 89 i;
#X obj 162 112 + 1;
#X floatatom 162 137 5 0 0 0 - - -;
#X obj 162 161 outlet;
#X obj 210 63 inlet;
#X obj 210 89 i;
#X obj 210 112 + 1;
#X floatatom 210 137 5 0 0 0 - - -;
#X obj 210 161 outlet;
#X obj 263 63 inlet;
#X obj 263 89 i;
#X obj 263 112 + 1;
#X floatatom 263 137 5 0 0 0 - - -;
#X obj 263 161 outlet;
#X obj 310 63 inlet;
#X obj 310 89 i;
#X obj 310 112 + 1;
#X floatatom 310 137 5 0 0 0 - - -;
#X obj 310 161 outlet;
#X obj 354 64 inlet;
#X obj 354 90 i;
#X obj 354 113 + 1;
#X floatatom 354 138 5 0 0 0 - - -;
#X obj 354 162 outlet;
#X obj 398 64 inlet;
#X obj 398 90 i;
#X obj 398 113 + 1;
#X floatatom 398 138 5 0 0 0 - - -;
#X obj 398 162 outlet;
#X obj 443 64 inlet;
#X obj 443 90 i;
#X obj 443 113 + 1;
#X floatatom 443 138 5 0 0 0 - - -;
#X obj 443 162 outlet;
#X obj 487 64 inlet;
#X obj 487 90 i;
#X obj 487 113 + 1;
#X floatatom 487 138 5 0 0 0 - - -;
#X obj 487 162 outlet;
#X connect 0 0 1 0;
#X connect 1 0 2 0;
#X connect 2 0 1 1;
#X connect 2 0 3 0;
#X connect 3 0 4 0;
#X connect 5 0 6 0;
#X connect 6 0 7 0;
#X connect 7 0 6 1;
#X connect 7 0 8 0;
#X connect 8 0 9 0;
#X connect 10 0 11 0;
#X connect 11 0 12 0;
#X connect 12 0 11 1;
#X connect 12 0 13 0;
#X connect 13 0 14 0;
#X connect 15 0 16 0;
#X connect 16 0 17 0;
#X connect 17 0 16 1;
#X connect 17 0 18 0;
#X connect 18 0 19 0;
#X connect 20 0 21 0;
#X connect 21 0 22 0;
#X connect 22 0 21 1;
#X connect 22 0 23 0;
#X connect 23 0 24 0;
#X connect 25 0 26 0;
#X connect 26 0 27 0;
#X connect 27 0 26 1;
#X connect 27 0 28 0;
#X connect 28 0 29 0;
#X connect 30 0 31 0;
#X connect 31 0 32 0;
#X connect 32 0 31 1;
#X connect 32 0 33 0;
#X connect 33 0 34 0;
#X connect 35 0 36 0;
#X connect 36 0 37 0;
#X connect 37 0 36 1;
#X connect 37 0 38 0;
#X connect 38 0 39 0;
#X connect 40 0 41 0;
#X connect 41 0 42 0;
#X connect 42 0 41 1;
#X connect 42 0 43 0;
#X connect 43 0 44 0;
#X restore 1072 122 pd hitCoun t;
#X connect 1 0 57 0;
#X connect 1 0 16 0;
#X connect 2 0 10 0;
#X connect 3 0 10 1;
#X connect 4 0 11 1;
#X connect 5 0 12 1;
#X connect 6 0 9 1;
#X connect 7 0 14 1;
#X connect 8 0 13 1;
#X connect 9 0 14 0;
#X connect 10 0 11 0;
#X connect 11 0 12 0;
#X connect 12 0 9 0;
#X connect 13 0 61 0;
#X connect 14 0 13 0;
#X connect 15 0 62 0;
#X connect 16 0 64 0;
#X connect 19 0 20 0;
#X connect 19 0 37 0;
#X connect 20 0 22 0;
#X connect 20 1 22 1;
#X connect 20 2 22 2;
#X connect 20 3 22 3;
#X connect 20 4 22 4;
#X connect 20 5 22 5;
#X connect 20 6 22 6;
#X connect 22 0 23 0;
#X connect 22 1 24 0;
#X connect 22 2 25 0;
#X connect 22 3 26 0;
#X connect 22 4 27 0;
#X connect 22 5 28 0;
#X connect 22 6 29 0;
#X connect 23 0 31 0;
#X connect 24 0 31 1;
#X connect 25 0 32 1;
#X connect 26 0 33 1;
#X connect 27 0 30 1;
#X connect 28 0 35 1;
#X connect 29 0 34 1;
#X connect 30 0 35 0;
#X connect 31 0 32 0;
#X connect 32 0 33 0;
#X connect 33 0 30 0;
#X connect 34 0 36 0;
#X connect 35 0 34 0;
#X connect 36 0 38 0;
#X connect 37 0 63 0;
#X connect 40 0 51 0;
#X connect 41 0 51 1;
#X connect 42 0 52 1;
#X connect 43 0 53 1;
#X connect 44 0 49 1;
#X connect 45 0 46 0;
#X connect 45 0 54 0;
#X connect 46 0 47 0;
#X connect 46 1 47 1;
#X connect 46 2 47 2;
#X connect 46 3 47 3;
#X connect 46 4 47 4;
#X connect 47 0 40 0;
#X connect 47 1 41 0;
#X connect 47 2 42 0;
#X connect 47 3 43 0;
#X connect 47 4 44 0;
#X connect 49 0 50 0;
#X connect 50 0 56 0;
#X connect 51 0 52 0;
#X connect 52 0 53 0;
#X connect 53 0 49 0;
#X connect 54 0 55 0;
#X connect 55 0 51 0;
#X connect 55 1 52 0;
#X connect 55 2 53 0;
#X connect 55 3 49 0;
#X connect 57 0 65 0;
#X connect 57 1 65 1;
#X connect 57 2 65 2;
#X connect 57 3 65 3;
#X connect 57 4 65 4;
#X connect 57 5 65 5;
#X connect 57 6 65 6;
#X connect 57 7 65 7;
#X connect 57 8 65 8;
#X connect 58 0 61 1;
#X connect 59 0 60 1;
#X connect 60 0 15 0;
#X connect 61 0 60 0;
#X connect 63 0 31 0;
#X connect 63 1 32 0;
#X connect 63 2 33 0;
#X connect 63 3 30 0;
#X connect 63 4 35 0;
#X connect 63 5 34 0;
#X connect 64 0 10 0;
#X connect 64 1 11 0;
#X connect 64 2 12 0;
#X connect 64 3 9 0;
#X connect 64 4 14 0;
#X connect 64 5 13 0;
#X connect 64 6 61 0;
#X connect 64 7 60 0;
#X connect 65 0 2 0;
#X connect 65 1 3 0;
#X connect 65 2 4 0;
#X connect 65 3 5 0;
#X connect 65 4 6 0;
#X connect 65 5 7 0;
#X connect 65 6 8 0;
#X connect 65 7 58 0;
#X connect 65 8 59 0;
#X restore 316 -171 pd hitCountMelody;
#N canvas 247 421 1518 718 hitCountRythym 0;
#X floatatom 579 228 5 0 0 0 - - -;
#X floatatom 613 228 5 0 0 0 - - -;
#X floatatom 647 228 5 0 0 0 - - -;
#X floatatom 681 228 5 0 0 0 - - -;
#X floatatom 715 228 5 0 0 0 - - -;
#X floatatom 749 229 5 0 0 0 - - -;
#X floatatom 783 229 5 0 0 0 - - -;
#X obj 579 327 +;
#X obj 579 253 +;
#X obj 579 276 +;
#X obj 579 300 +;
#X obj 579 377 +;
#X obj 579 350 +;
#X floatatom 579 636 5 0 0 0 - - -;
#X msg 389 194 bang;
#X obj 133 61 cnv 15 100 50 empty empty empty 20 12 0 14 -258113 -66577
0;
#X floatatom 133 227 5 0 0 0 - - -;
#X floatatom 167 227 5 0 0 0 - - -;
#X floatatom 201 227 5 0 0 0 - - -;
#X floatatom 235 227 5 0 0 0 - - -;
#X floatatom 269 227 5 0 0 0 - - -;
#N canvas 1063 563 532 225 hitCount 0;
#X obj 109 63 inlet;
#X obj 109 89 i;
#X obj 109 112 + 1;
#X floatatom 109 137 5 0 0 0 - - -;
#X obj 109 161 outlet;
#X obj 162 63 inlet;
#X obj 162 89 i;
#X obj 162 112 + 1;
#X floatatom 162 137 5 0 0 0 - - -;
#X obj 162 161 outlet;
#X obj 210 63 inlet;
#X obj 210 89 i;
#X obj 210 112 + 1;
#X floatatom 210 137 5 0 0 0 - - -;
#X obj 210 161 outlet;
#X obj 263 63 inlet;
#X obj 263 89 i;
#X obj 263 112 + 1;
#X floatatom 263 137 5 0 0 0 - - -;
#X obj 263 161 outlet;
#X obj 310 63 inlet;
#X obj 310 89 i;
#X obj 310 112 + 1;
#X floatatom 310 137 5 0 0 0 - - -;
#X obj 310 161 outlet;
#X obj 356 62 inlet;
#X obj 356 88 i;
#X obj 356 111 + 1;
#X floatatom 356 136 5 0 0 0 - - -;
#X obj 356 160 outlet;
#X connect 0 0 1 0;
#X connect 1 0 2 0;
#X connect 2 0 1 1;
#X connect 2 0 3 0;
#X connect 3 0 4 0;
#X connect 5 0 6 0;
#X connect 6 0 7 0;
#X connect 7 0 6 1;
#X connect 7 0 8 0;
#X connect 8 0 9 0;
#X connect 10 0 11 0;
#X connect 11 0 12 0;
#X connect 12 0 11 1;
#X connect 12 0 13 0;
#X connect 13 0 14 0;
#X connect 15 0 16 0;
#X connect 16 0 17 0;
#X connect 17 0 16 1;
#X connect 17 0 18 0;
#X connect 18 0 19 0;
#X connect 20 0 21 0;
#X connect 21 0 22 0;
#X connect 22 0 21 1;
#X connect 22 0 23 0;
#X connect 23 0 24 0;
#X connect 25 0 26 0;
#X connect 26 0 27 0;
#X connect 27 0 26 1;
#X connect 27 0 28 0;
#X connect 28 0 29 0;
#X restore 133 193 pd hitCount;
#X text 156 78 HRDVSION;
#X obj 133 332 +;
#X floatatom 133 374 5 0 0 0 - - -;
#X obj 133 258 +;
#X obj 133 281 +;
#X obj 133 305 +;
#X msg 56 192 bang;
#X obj 133 123 r numRythym;
#X obj 579 115 r numRythym;
#X obj 133 149 select 1 2 3 4 5 6;
#X floatatom 304 228 5 0 0 0 - - -;
#X obj 133 408 s rhyHRDVSION;
#X obj 579 662 s rhyBIRDWISE;
#X obj 133 354 +;
#X obj 56 226 t b b b b b;
#X obj 579 141 select 7 8 9 10 11 12 13 14 15 16 17 18 19 20 21 22
;
#N canvas 538 691 963 231 h 0;
#X obj 109 63 inlet;
#X obj 109 89 i;
#X obj 109 112 + 1;
#X floatatom 109 137 5 0 0 0 - - -;
#X obj 109 161 outlet;
#X obj 162 63 inlet;
#X obj 162 89 i;
#X obj 162 112 + 1;
#X floatatom 162 137 5 0 0 0 - - -;
#X obj 162 161 outlet;
#X obj 210 63 inlet;
#X obj 210 89 i;
#X obj 210 112 + 1;
#X floatatom 210 137 5 0 0 0 - - -;
#X obj 210 161 outlet;
#X obj 263 63 inlet;
#X obj 263 89 i;
#X obj 263 112 + 1;
#X floatatom 263 137 5 0 0 0 - - -;
#X obj 263 161 outlet;
#X obj 310 63 inlet;
#X obj 310 89 i;
#X obj 310 112 + 1;
#X floatatom 310 137 5 0 0 0 - - -;
#X obj 310 161 outlet;
#X obj 354 64 inlet;
#X obj 354 90 i;
#X obj 354 113 + 1;
#X floatatom 354 138 5 0 0 0 - - -;
#X obj 354 162 outlet;
#X obj 398 64 inlet;
#X obj 398 90 i;
#X obj 398 113 + 1;
#X floatatom 398 138 5 0 0 0 - - -;
#X obj 398 162 outlet;
#X obj 444 62 inlet;
#X obj 444 88 i;
#X obj 444 111 + 1;
#X floatatom 444 136 5 0 0 0 - - -;
#X obj 444 160 outlet;
#X obj 497 62 inlet;
#X obj 497 88 i;
#X obj 497 111 + 1;
#X floatatom 497 136 5 0 0 0 - - -;
#X obj 497 160 outlet;
#X obj 545 62 inlet;
#X obj 545 88 i;
#X obj 545 111 + 1;
#X floatatom 545 136 5 0 0 0 - - -;
#X obj 545 160 outlet;
#X obj 598 62 inlet;
#X obj 598 88 i;
#X obj 598 111 + 1;
#X floatatom 598 136 5 0 0 0 - - -;
#X obj 598 160 outlet;
#X obj 645 62 inlet;
#X obj 645 88 i;
#X obj 645 111 + 1;
#X floatatom 645 136 5 0 0 0 - - -;
#X obj 645 160 outlet;
#X obj 689 63 inlet;
#X obj 689 89 i;
#X obj 689 112 + 1;
#X floatatom 689 137 5 0 0 0 - - -;
#X obj 689 161 outlet;
#X obj 733 63 inlet;
#X obj 733 89 i;
#X obj 733 112 + 1;
#X floatatom 733 137 5 0 0 0 - - -;
#X obj 733 161 outlet;
#X obj 779 63 inlet;
#X obj 779 89 i;
#X obj 779 112 + 1;
#X floatatom 779 137 5 0 0 0 - - -;
#X obj 779 161 outlet;
#X obj 823 63 inlet;
#X obj 823 89 i;
#X obj 823 112 + 1;
#X floatatom 823 137 5 0 0 0 - - -;
#X obj 823 161 outlet;
#X connect 0 0 1 0;
#X connect 1 0 2 0;
#X connect 2 0 1 1;
#X connect 2 0 3 0;
#X connect 3 0 4 0;
#X connect 5 0 6 0;
#X connect 6 0 7 0;
#X connect 7 0 6 1;
#X connect 7 0 8 0;
#X connect 8 0 9 0;
#X connect 10 0 11 0;
#X connect 11 0 12 0;
#X connect 12 0 11 1;
#X connect 12 0 13 0;
#X connect 13 0 14 0;
#X connect 15 0 16 0;
#X connect 16 0 17 0;
#X connect 17 0 16 1;
#X connect 17 0 18 0;
#X connect 18 0 19 0;
#X connect 20 0 21 0;
#X connect 21 0 22 0;
#X connect 22 0 21 1;
#X connect 22 0 23 0;
#X connect 23 0 24 0;
#X connect 25 0 26 0;
#X connect 26 0 27 0;
#X connect 27 0 26 1;
#X connect 27 0 28 0;
#X connect 28 0 29 0;
#X connect 30 0 31 0;
#X connect 31 0 32 0;
#X connect 32 0 31 1;
#X connect 32 0 33 0;
#X connect 33 0 34 0;
#X connect 35 0 36 0;
#X connect 36 0 37 0;
#X connect 37 0 36 1;
#X connect 37 0 38 0;
#X connect 38 0 39 0;
#X connect 40 0 41 0;
#X connect 41 0 42 0;
#X connect 42 0 41 1;
#X connect 42 0 43 0;
#X connect 43 0 44 0;
#X connect 45 0 46 0;
#X connect 46 0 47 0;
#X connect 47 0 46 1;
#X connect 47 0 48 0;
#X connect 48 0 49 0;
#X connect 50 0 51 0;
#X connect 51 0 52 0;
#X connect 52 0 51 1;
#X connect 52 0 53 0;
#X connect 53 0 54 0;
#X connect 55 0 56 0;
#X connect 56 0 57 0;
#X connect 57 0 56 1;
#X connect 57 0 58 0;
#X connect 58 0 59 0;
#X connect 60 0 61 0;
#X connect 61 0 62 0;
#X connect 62 0 61 1;
#X connect 62 0 63 0;
#X connect 63 0 64 0;
#X connect 65 0 66 0;
#X connect 66 0 67 0;
#X connect 67 0 66 1;
#X connect 67 0 68 0;
#X connect 68 0 69 0;
#X connect 70 0 71 0;
#X connect 71 0 72 0;
#X connect 72 0 71 1;
#X connect 72 0 73 0;
#X connect 73 0 74 0;
#X connect 75 0 76 0;
#X connect 76 0 77 0;
#X connect 77 0 76 1;
#X connect 77 0 78 0;
#X connect 78 0 79 0;
#X restore 579 190 pd h i t C o u n t;
#X floatatom 818 229 5 0 0 0 - - -;
#X floatatom 852 229 5 0 0 0 - - -;
#X floatatom 886 229 5 0 0 0 - - -;
#X floatatom 920 229 5 0 0 0 - - -;
#X floatatom 954 229 5 0 0 0 - - -;
#X floatatom 988 230 5 0 0 0 - - -;
#X floatatom 1022 230 5 0 0 0 - - -;
#X floatatom 1057 230 5 0 0 0 - - -;
#X floatatom 1091 230 5 0 0 0 - - -;
#X obj 579 476 +;
#X obj 579 402 +;
#X obj 579 425 +;
#X obj 579 449 +;
#X obj 579 526 +;
#X obj 579 499 +;
#X obj 579 577 +;
#X obj 579 550 +;
#X obj 579 601 +;
#X obj 389 227 t b b b b b b b b b b b b b b;
#X obj 578 56 cnv 15 100 50 empty empty empty 20 12 0 14 -258113 -66577
0;
#X text 601 73 BIRDWISE;
#X obj 1224 65 cnv 15 100 50 empty empty empty 20 12 0 14 -258113 -66577
0;
#X floatatom 1224 231 5 0 0 0 - - -;
#X floatatom 1258 231 5 0 0 0 - - -;
#X floatatom 1292 231 5 0 0 0 - - -;
#X floatatom 1326 231 5 0 0 0 - - -;
#X floatatom 1360 231 5 0 0 0 - - -;
#N canvas 1063 563 532 225 hitCount 0;
#X obj 109 63 inlet;
#X obj 109 89 i;
#X obj 109 112 + 1;
#X floatatom 109 137 5 0 0 0 - - -;
#X obj 109 161 outlet;
#X obj 162 63 inlet;
#X obj 162 89 i;
#X obj 162 112 + 1;
#X floatatom 162 137 5 0 0 0 - - -;
#X obj 162 161 outlet;
#X obj 210 63 inlet;
#X obj 210 89 i;
#X obj 210 112 + 1;
#X floatatom 210 137 5 0 0 0 - - -;
#X obj 210 161 outlet;
#X obj 263 63 inlet;
#X obj 263 89 i;
#X obj 263 112 + 1;
#X floatatom 263 137 5 0 0 0 - - -;
#X obj 263 161 outlet;
#X obj 310 63 inlet;
#X obj 310 89 i;
#X obj 310 112 + 1;
#X floatatom 310 137 5 0 0 0 - - -;
#X obj 310 161 outlet;
#X obj 356 62 inlet;
#X obj 356 88 i;
#X obj 356 111 + 1;
#X floatatom 356 136 5 0 0 0 - - -;
#X obj 356 160 outlet;
#X connect 0 0 1 0;
#X connect 1 0 2 0;
#X connect 2 0 1 1;
#X connect 2 0 3 0;
#X connect 3 0 4 0;
#X connect 5 0 6 0;
#X connect 6 0 7 0;
#X connect 7 0 6 1;
#X connect 7 0 8 0;
#X connect 8 0 9 0;
#X connect 10 0 11 0;
#X connect 11 0 12 0;
#X connect 12 0 11 1;
#X connect 12 0 13 0;
#X connect 13 0 14 0;
#X connect 15 0 16 0;
#X connect 16 0 17 0;
#X connect 17 0 16 1;
#X connect 17 0 18 0;
#X connect 18 0 19 0;
#X connect 20 0 21 0;
#X connect 21 0 22 0;
#X connect 22 0 21 1;
#X connect 22 0 23 0;
#X connect 23 0 24 0;
#X connect 25 0 26 0;
#X connect 26 0 27 0;
#X connect 27 0 26 1;
#X connect 27 0 28 0;
#X connect 28 0 29 0;
#X restore 1224 197 pd hitCount;
#X obj 1224 336 +;
#X floatatom 1224 378 5 0 0 0 - - -;
#X obj 1224 262 +;
#X obj 1224 285 +;
#X obj 1224 309 +;
#X msg 1147 196 bang;
#X obj 1224 127 r numRythym;
#X floatatom 1395 232 5 0 0 0 - - -;
#X obj 1224 358 +;
#X obj 1147 230 t b b b b b;
#X text 1247 82 TLL;
#X obj 1224 153 select 23 24 25 26 27 28;
#X obj 1224 412 s rhyTLL;
#X connect 0 0 8 0;
#X connect 1 0 8 1;
#X connect 2 0 9 1;
#X connect 3 0 10 1;
#X connect 4 0 7 1;
#X connect 5 0 12 1;
#X connect 6 0 11 1;
#X connect 7 0 12 0;
#X connect 8 0 9 0;
#X connect 9 0 10 0;
#X connect 10 0 7 0;
#X connect 11 0 49 0;
#X connect 12 0 11 0;
#X connect 13 0 34 0;
#X connect 14 0 57 0;
#X connect 16 0 25 0;
#X connect 17 0 25 1;
#X connect 18 0 26 1;
#X connect 19 0 27 1;
#X connect 20 0 23 1;
#X connect 21 0 16 0;
#X connect 21 1 17 0;
#X connect 21 2 18 0;
#X connect 21 3 19 0;
#X connect 21 4 20 0;
#X connect 21 5 32 0;
#X connect 23 0 35 0;
#X connect 24 0 33 0;
#X connect 25 0 26 0;
#X connect 26 0 27 0;
#X connect 27 0 23 0;
#X connect 28 0 36 0;
#X connect 29 0 31 0;
#X connect 29 0 28 0;
#X connect 30 0 37 0;
#X connect 30 0 14 0;
#X connect 31 0 21 0;
#X connect 31 1 21 1;
#X connect 31 2 21 2;
#X connect 31 3 21 3;
#X connect 31 4 21 4;
#X connect 31 5 21 5;
#X connect 32 0 35 1;
#X connect 35 0 24 0;
#X connect 36 0 25 0;
#X connect 36 1 26 0;
#X connect 36 2 27 0;
#X connect 36 3 23 0;
#X connect 36 4 35 0;
#X connect 37 0 38 0;
#X connect 37 1 38 1;
#X connect 37 2 38 2;
#X connect 37 3 38 3;
#X connect 37 4 38 4;
#X connect 37 5 38 5;
#X connect 37 6 38 6;
#X connect 37 7 38 7;
#X connect 37 8 38 8;
#X connect 37 9 38 9;
#X connect 37 10 38 10;
#X connect 37 11 38 11;
#X connect 37 12 38 12;
#X connect 37 13 38 13;
#X connect 37 14 38 14;
#X connect 37 15 38 15;
#X connect 38 0 0 0;
#X connect 38 1 1 0;
#X connect 38 2 2 0;
#X connect 38 3 3 0;
#X connect 38 4 4 0;
#X connect 38 5 5 0;
#X connect 38 6 6 0;
#X connect 38 7 39 0;
#X connect 38 8 40 0;
#X connect 38 9 41 0;
#X connect 38 10 42 0;
#X connect 38 11 43 0;
#X connect 38 12 44 0;
#X connect 38 13 45 0;
#X connect 38 14 46 0;
#X connect 38 15 47 0;
#X connect 39 0 49 1;
#X connect 40 0 50 1;
#X connect 41 0 51 1;
#X connect 42 0 48 1;
#X connect 43 0 53 1;
#X connect 44 0 52 1;
#X connect 45 0 55 1;
#X connect 46 0 54 1;
#X connect 47 0 56 1;
#X connect 48 0 53 0;
#X connect 49 0 50 0;
#X connect 50 0 51 0;
#X connect 51 0 48 0;
#X connect 52 0 55 0;
#X connect 53 0 52 0;
#X connect 54 0 56 0;
#X connect 55 0 54 0;
#X connect 56 0 13 0;
#X connect 57 0 8 0;
#X connect 57 1 9 0;
#X connect 57 2 10 0;
#X connect 57 3 7 0;
#X connect 57 4 12 0;
#X connect 57 5 11 0;
#X connect 57 6 49 0;
#X connect 57 7 50 0;
#X connect 57 8 51 0;
#X connect 57 9 48 0;
#X connect 57 10 53 0;
#X connect 57 11 52 0;
#X connect 57 12 55 0;
#X connect 57 13 54 0;
#X connect 61 0 69 0;
#X connect 62 0 69 1;
#X connect 63 0 70 1;
#X connect 64 0 71 1;
#X connect 65 0 67 1;
#X connect 66 0 61 0;
#X connect 66 1 62 0;
#X connect 66 2 63 0;
#X connect 66 3 64 0;
#X connect 66 4 65 0;
#X connect 66 5 74 0;
#X connect 67 0 75 0;
#X connect 68 0 79 0;
#X connect 69 0 70 0;
#X connect 70 0 71 0;
#X connect 71 0 67 0;
#X connect 72 0 76 0;
#X connect 73 0 78 0;
#X connect 73 0 72 0;
#X connect 74 0 75 1;
#X connect 75 0 68 0;
#X connect 76 0 69 0;
#X connect 76 1 70 0;
#X connect 76 2 71 0;
#X connect 76 3 67 0;
#X connect 76 4 75 0;
#X connect 78 0 66 0;
#X connect 78 1 66 1;
#X connect 78 2 66 2;
#X connect 78 3 66 3;
#X connect 78 4 66 4;
#X connect 78 5 66 5;
#X restore 316 -193 pd hitCountRythym;
#N canvas 883 235 889 432 hitCountDrums 0;
#X obj 39 30 r drum1;
#X obj 87 30 r drum2;
#X obj 135 30 r drum3;
#X obj 183 30 r drum4;
#X obj 184 55 r drum5;
#X obj 232 55 r drum6;
#X obj 280 55 r drum7;
#X obj 328 55 r drum8;
#X obj 329 79 r drum9;
#X obj 377 79 r drum10;
#X obj 431 79 r drum11;
#X obj 485 79 r drum12;
#X obj 486 102 r drum13;
#X obj 540 102 r drum14;
#X obj 594 102 r drum15;
#X obj 649 102 r drum16;
#X obj 211 267 cnv 15 120 120 empty empty empty 20 12 0 14 -258113
-66577 0;
#X obj 225 347 s drmHRDVSION;
#N canvas 88 239 1152 839 drumHRDVSION 0;
#X obj 321 46 inlet;
#X obj 321 75 select 1 2 3 4 5 6 7 8 9 10 12 12 13 14 15 16 17 18 19
20 21 22;
#X floatatom 321 200 5 0 0 0 - - -;
#X floatatom 355 200 5 0 0 0 - - -;
#X floatatom 389 200 5 0 0 0 - - -;
#X floatatom 423 200 5 0 0 0 - - -;
#X floatatom 457 200 5 0 0 0 - - -;
#X floatatom 492 201 5 0 0 0 - - -;
#X floatatom 527 201 5 0 0 0 - - -;
#X floatatom 561 201 5 0 0 0 - - -;
#X floatatom 595 201 5 0 0 0 - - -;
#X floatatom 629 201 5 0 0 0 - - -;
#X floatatom 663 201 5 0 0 0 - - -;
#X floatatom 698 201 5 0 0 0 - - -;
#X floatatom 732 201 5 0 0 0 - - -;
#X floatatom 766 201 5 0 0 0 - - -;
#X floatatom 800 201 5 0 0 0 - - -;
#X floatatom 835 202 5 0 0 0 - - -;
#X floatatom 870 202 5 0 0 0 - - -;
#X floatatom 904 202 5 0 0 0 - - -;
#X floatatom 938 202 5 0 0 0 - - -;
#X floatatom 972 202 5 0 0 0 - - -;
#X floatatom 1006 202 5 0 0 0 - - -;
#X floatatom 1041 203 5 0 0 0 - - -;
#X obj 321 305 +;
#X obj 321 231 +;
#X obj 321 254 +;
#X obj 321 278 +;
#X obj 321 327 +;
#X obj 321 424 +;
#X obj 321 350 +;
#X obj 321 373 +;
#X obj 321 397 +;
#X obj 321 446 +;
#X obj 321 541 +;
#X obj 321 467 +;
#X obj 321 490 +;
#X obj 321 514 +;
#X obj 321 563 +;
#X obj 321 660 +;
#X obj 321 586 +;
#X obj 321 609 +;
#X obj 321 633 +;
#X obj 321 682 +;
#X obj 321 704 +;
#N canvas 251 597 1170 320 hitCounter 0;
#X obj 51 66 inlet;
#X obj 51 92 i;
#X obj 51 115 + 1;
#X floatatom 51 140 5 0 0 0 - - -;
#X obj 51 164 outlet;
#X obj 104 66 inlet;
#X obj 104 92 i;
#X obj 104 115 + 1;
#X floatatom 104 140 5 0 0 0 - - -;
#X obj 104 164 outlet;
#X obj 152 66 inlet;
#X obj 152 92 i;
#X obj 152 115 + 1;
#X floatatom 152 140 5 0 0 0 - - -;
#X obj 152 164 outlet;
#X obj 205 66 inlet;
#X obj 205 92 i;
#X obj 205 115 + 1;
#X floatatom 205 140 5 0 0 0 - - -;
#X obj 205 164 outlet;
#X obj 252 66 inlet;
#X obj 252 92 i;
#X obj 252 115 + 1;
#X floatatom 252 140 5 0 0 0 - - -;
#X obj 252 164 outlet;
#X obj 298 65 inlet;
#X obj 298 91 i;
#X obj 298 114 + 1;
#X floatatom 298 139 5 0 0 0 - - -;
#X obj 298 163 outlet;
#X obj 346 65 inlet;
#X obj 346 91 i;
#X obj 346 114 + 1;
#X floatatom 346 139 5 0 0 0 - - -;
#X obj 346 163 outlet;
#X obj 399 65 inlet;
#X obj 399 91 i;
#X obj 399 114 + 1;
#X floatatom 399 139 5 0 0 0 - - -;
#X obj 399 163 outlet;
#X obj 447 65 inlet;
#X obj 447 91 i;
#X obj 447 114 + 1;
#X floatatom 447 139 5 0 0 0 - - -;
#X obj 447 163 outlet;
#X obj 500 65 inlet;
#X obj 500 91 i;
#X obj 500 114 + 1;
#X floatatom 500 139 5 0 0 0 - - -;
#X obj 500 163 outlet;
#X obj 547 65 inlet;
#X obj 547 91 i;
#X obj 547 114 + 1;
#X floatatom 547 139 5 0 0 0 - - -;
#X obj 547 163 outlet;
#X obj 593 64 inlet;
#X obj 593 90 i;
#X obj 593 113 + 1;
#X floatatom 593 138 5 0 0 0 - - -;
#X obj 593 162 outlet;
#X obj 638 64 inlet;
#X obj 638 90 i;
#X obj 638 113 + 1;
#X floatatom 638 138 5 0 0 0 - - -;
#X obj 638 162 outlet;
#X obj 691 64 inlet;
#X obj 691 90 i;
#X obj 691 113 + 1;
#X floatatom 691 138 5 0 0 0 - - -;
#X obj 691 162 outlet;
#X obj 739 64 inlet;
#X obj 739 90 i;
#X obj 739 113 + 1;
#X floatatom 739 138 5 0 0 0 - - -;
#X obj 739 162 outlet;
#X obj 792 64 inlet;
#X obj 792 90 i;
#X obj 792 113 + 1;
#X floatatom 792 138 5 0 0 0 - - -;
#X obj 792 162 outlet;
#X obj 839 64 inlet;
#X obj 839 90 i;
#X obj 839 113 + 1;
#X floatatom 839 138 5 0 0 0 - - -;
#X obj 839 162 outlet;
#X obj 885 63 inlet;
#X obj 885 89 i;
#X obj 885 112 + 1;
#X floatatom 885 137 5 0 0 0 - - -;
#X obj 885 161 outlet;
#X obj 933 63 inlet;
#X obj 933 89 i;
#X obj 933 112 + 1;
#X floatatom 933 137 5 0 0 0 - - -;
#X obj 933 161 outlet;
#X obj 986 63 inlet;
#X obj 986 89 i;
#X obj 986 112 + 1;
#X floatatom 986 137 5 0 0 0 - - -;
#X obj 986 161 outlet;
#X obj 1034 63 inlet;
#X obj 1034 89 i;
#X obj 1034 112 + 1;
#X floatatom 1034 137 5 0 0 0 - - -;
#X obj 1034 161 outlet;
#X obj 1087 63 inlet;
#X obj 1087 89 i;
#X obj 1087 112 + 1;
#X floatatom 1087 137 5 0 0 0 - - -;
#X obj 1087 161 outlet;
#X connect 0 0 1 0;
#X connect 1 0 2 0;
#X connect 2 0 1 1;
#X connect 2 0 3 0;
#X connect 3 0 4 0;
#X connect 5 0 6 0;
#X connect 6 0 7 0;
#X connect 7 0 6 1;
#X connect 7 0 8 0;
#X connect 8 0 9 0;
#X connect 10 0 11 0;
#X connect 11 0 12 0;
#X connect 12 0 11 1;
#X connect 12 0 13 0;
#X connect 13 0 14 0;
#X connect 15 0 16 0;
#X connect 16 0 17 0;
#X connect 17 0 16 1;
#X connect 17 0 18 0;
#X connect 18 0 19 0;
#X connect 20 0 21 0;
#X connect 21 0 22 0;
#X connect 22 0 21 1;
#X connect 22 0 23 0;
#X connect 23 0 24 0;
#X connect 25 0 26 0;
#X connect 26 0 27 0;
#X connect 27 0 26 1;
#X connect 27 0 28 0;
#X connect 28 0 29 0;
#X connect 30 0 31 0;
#X connect 31 0 32 0;
#X connect 32 0 31 1;
#X connect 32 0 33 0;
#X connect 33 0 34 0;
#X connect 35 0 36 0;
#X connect 36 0 37 0;
#X connect 37 0 36 1;
#X connect 37 0 38 0;
#X connect 38 0 39 0;
#X connect 40 0 41 0;
#X connect 41 0 42 0;
#X connect 42 0 41 1;
#X connect 42 0 43 0;
#X connect 43 0 44 0;
#X connect 45 0 46 0;
#X connect 46 0 47 0;
#X connect 47 0 46 1;
#X connect 47 0 48 0;
#X connect 48 0 49 0;
#X connect 50 0 51 0;
#X connect 51 0 52 0;
#X connect 52 0 51 1;
#X connect 52 0 53 0;
#X connect 53 0 54 0;
#X connect 55 0 56 0;
#X connect 56 0 57 0;
#X connect 57 0 56 1;
#X connect 57 0 58 0;
#X connect 58 0 59 0;
#X connect 60 0 61 0;
#X connect 61 0 62 0;
#X connect 62 0 61 1;
#X connect 62 0 63 0;
#X connect 63 0 64 0;
#X connect 65 0 66 0;
#X connect 66 0 67 0;
#X connect 67 0 66 1;
#X connect 67 0 68 0;
#X connect 68 0 69 0;
#X connect 70 0 71 0;
#X connect 71 0 72 0;
#X connect 72 0 71 1;
#X connect 72 0 73 0;
#X connect 73 0 74 0;
#X connect 75 0 76 0;
#X connect 76 0 77 0;
#X connect 77 0 76 1;
#X connect 77 0 78 0;
#X connect 78 0 79 0;
#X connect 80 0 81 0;
#X connect 81 0 82 0;
#X connect 82 0 81 1;
#X connect 82 0 83 0;
#X connect 83 0 84 0;
#X connect 85 0 86 0;
#X connect 86 0 87 0;
#X connect 87 0 86 1;
#X connect 87 0 88 0;
#X connect 88 0 89 0;
#X connect 90 0 91 0;
#X connect 91 0 92 0;
#X connect 92 0 91 1;
#X connect 92 0 93 0;
#X connect 93 0 94 0;
#X connect 95 0 96 0;
#X connect 96 0 97 0;
#X connect 97 0 96 1;
#X connect 97 0 98 0;
#X connect 98 0 99 0;
#X connect 100 0 101 0;
#X connect 101 0 102 0;
#X connect 102 0 101 1;
#X connect 102 0 103 0;
#X connect 103 0 104 0;
#X connect 105 0 106 0;
#X connect 106 0 107 0;
#X connect 107 0 106 1;
#X connect 107 0 108 0;
#X connect 108 0 109 0;
#X restore 321 149 pd hitCounter;
#X floatatom 321 735 5 0 0 0 - - -;
#X msg 28 175 bang;
#X obj 28 200 t b b b b b b b b b b b b b b b b b b b b;
#X obj 218 75 cnv 15 100 50 empty empty empty 20 12 0 14 -258113 -66577
0;
#X text 241 92 HRDVSION;
#X obj 321 762 outlet;
#X connect 0 0 1 0;
#X connect 1 0 45 0;
#X connect 1 0 47 0;
#X connect 1 1 45 1;
#X connect 1 1 47 0;
#X connect 1 2 45 2;
#X connect 1 2 47 0;
#X connect 1 3 45 3;
#X connect 1 3 47 0;
#X connect 1 4 45 4;
#X connect 1 4 47 0;
#X connect 1 5 45 5;
#X connect 1 5 47 0;
#X connect 1 6 45 6;
#X connect 1 6 47 0;
#X connect 1 7 45 7;
#X connect 1 7 47 0;
#X connect 1 8 45 8;
#X connect 1 8 47 0;
#X connect 1 9 45 9;
#X connect 1 9 47 0;
#X connect 1 10 45 10;
#X connect 1 10 47 0;
#X connect 1 11 45 11;
#X connect 1 11 47 0;
#X connect 1 12 45 12;
#X connect 1 12 47 0;
#X connect 1 13 45 13;
#X connect 1 13 47 0;
#X connect 1 14 45 14;
#X connect 1 14 47 0;
#X connect 1 15 45 15;
#X connect 1 15 47 0;
#X connect 1 16 45 16;
#X connect 1 16 47 0;
#X connect 1 17 45 17;
#X connect 1 17 47 0;
#X connect 1 18 45 18;
#X connect 1 18 47 0;
#X connect 1 19 45 19;
#X connect 1 19 47 0;
#X connect 1 20 45 20;
#X connect 1 20 47 0;
#X connect 1 21 45 21;
#X connect 1 21 47 0;
#X connect 2 0 25 0;
#X connect 3 0 25 1;
#X connect 4 0 26 1;
#X connect 5 0 27 1;
#X connect 6 0 24 1;
#X connect 7 0 28 1;
#X connect 8 0 30 1;
#X connect 9 0 31 1;
#X connect 10 0 32 1;
#X connect 11 0 29 1;
#X connect 12 0 33 1;
#X connect 13 0 35 1;
#X connect 14 0 36 1;
#X connect 15 0 37 1;
#X connect 16 0 34 1;
#X connect 17 0 38 1;
#X connect 18 0 40 1;
#X connect 19 0 41 1;
#X connect 20 0 42 1;
#X connect 21 0 39 1;
#X connect 22 0 43 1;
#X connect 23 0 44 1;
#X connect 24 0 28 0;
#X connect 25 0 26 0;
#X connect 26 0 27 0;
#X connect 27 0 24 0;
#X connect 28 0 30 0;
#X connect 29 0 33 0;
#X connect 30 0 31 0;
#X connect 31 0 32 0;
#X connect 32 0 29 0;
#X connect 33 0 35 0;
#X connect 34 0 38 0;
#X connect 35 0 36 0;
#X connect 36 0 37 0;
#X connect 37 0 34 0;
#X connect 38 0 40 0;
#X connect 39 0 43 0;
#X connect 40 0 41 0;
#X connect 41 0 42 0;
#X connect 42 0 39 0;
#X connect 43 0 44 0;
#X connect 44 0 46 0;
#X connect 45 0 2 0;
#X connect 45 1 3 0;
#X connect 45 2 4 0;
#X connect 45 3 5 0;
#X connect 45 4 6 0;
#X connect 45 5 7 0;
#X connect 45 6 8 0;
#X connect 45 7 9 0;
#X connect 45 8 10 0;
#X connect 45 9 11 0;
#X connect 45 10 12 0;
#X connect 45 11 13 0;
#X connect 45 12 14 0;
#X connect 45 13 15 0;
#X connect 45 14 16 0;
#X connect 45 15 17 0;
#X connect 45 16 18 0;
#X connect 45 17 19 0;
#X connect 45 18 20 0;
#X connect 45 19 21 0;
#X connect 45 20 22 0;
#X connect 45 21 23 0;
#X connect 46 0 51 0;
#X connect 47 0 48 0;
#X connect 48 0 25 0;
#X connect 48 1 26 0;
#X connect 48 2 27 0;
#X connect 48 3 24 0;
#X connect 48 4 28 0;
#X connect 48 5 30 0;
#X connect 48 6 31 0;
#X connect 48 7 32 0;
#X connect 48 8 29 0;
#X connect 48 9 33 0;
#X connect 48 10 35 0;
#X connect 48 11 36 0;
#X connect 48 12 37 0;
#X connect 48 13 34 0;
#X connect 48 14 38 0;
#X connect 48 15 40 0;
#X connect 48 16 41 0;
#X connect 48 17 42 0;
#X connect 48 18 39 0;
#X connect 48 19 43 0;
#X restore 225 292 pd drumHRDVSION;
#X floatatom 225 320 8 0 0 0 - - -;
#X obj 355 267 cnv 15 120 120 empty empty empty 20 12 0 14 -258113
-66577 0;
#X obj 371 348 s drmBIRDWISE;
#N canvas 869 25 1031 854 drumBIRDWISE 0;
#X obj 291 109 inlet;
#X obj 291 139 select 23 24 25 26 27 28 29 30 31 32 33 34 35 36 37
38 39 40 41 42;
#X obj 183 140 cnv 15 100 50 empty empty empty 20 12 0 14 -258113 -66577
0;
#X text 206 157 BIRDWISE;
#X floatatom 291 252 5 0 0 0 - - -;
#X floatatom 325 252 5 0 0 0 - - -;
#X floatatom 359 252 5 0 0 0 - - -;
#X floatatom 393 252 5 0 0 0 - - -;
#X floatatom 427 252 5 0 0 0 - - -;
#X floatatom 462 253 5 0 0 0 - - -;
#X floatatom 497 253 5 0 0 0 - - -;
#X floatatom 531 253 5 0 0 0 - - -;
#X floatatom 565 253 5 0 0 0 - - -;
#X floatatom 599 253 5 0 0 0 - - -;
#X floatatom 633 253 5 0 0 0 - - -;
#X floatatom 668 253 5 0 0 0 - - -;
#X floatatom 702 253 5 0 0 0 - - -;
#X floatatom 736 253 5 0 0 0 - - -;
#X floatatom 770 253 5 0 0 0 - - -;
#X floatatom 805 254 5 0 0 0 - - -;
#X floatatom 840 254 5 0 0 0 - - -;
#X floatatom 874 254 5 0 0 0 - - -;
#X floatatom 908 254 5 0 0 0 - - -;
#X floatatom 942 254 5 0 0 0 - - -;
#X obj 291 357 +;
#X obj 291 283 +;
#X obj 291 306 +;
#X obj 291 330 +;
#X obj 291 379 +;
#X obj 291 476 +;
#X obj 291 402 +;
#X obj 291 425 +;
#X obj 291 449 +;
#X obj 291 498 +;
#X obj 291 593 +;
#X obj 291 519 +;
#X obj 291 542 +;
#X obj 291 566 +;
#X obj 291 615 +;
#X obj 291 712 +;
#X obj 291 638 +;
#X obj 291 661 +;
#X obj 291 685 +;
#X floatatom 291 742 5 0 0 0 - - -;
#X msg -2 220 bang;
#X obj -2 252 t b b b b b b b b b b b b b b b b b b;
#N canvas 251 597 1170 320 hitCounter 0;
#X obj 51 66 inlet;
#X obj 51 92 i;
#X obj 51 115 + 1;
#X floatatom 51 140 5 0 0 0 - - -;
#X obj 51 164 outlet;
#X obj 104 66 inlet;
#X obj 104 92 i;
#X obj 104 115 + 1;
#X floatatom 104 140 5 0 0 0 - - -;
#X obj 104 164 outlet;
#X obj 152 66 inlet;
#X obj 152 92 i;
#X obj 152 115 + 1;
#X floatatom 152 140 5 0 0 0 - - -;
#X obj 152 164 outlet;
#X obj 205 66 inlet;
#X obj 205 92 i;
#X obj 205 115 + 1;
#X floatatom 205 140 5 0 0 0 - - -;
#X obj 205 164 outlet;
#X obj 252 66 inlet;
#X obj 252 92 i;
#X obj 252 115 + 1;
#X floatatom 252 140 5 0 0 0 - - -;
#X obj 252 164 outlet;
#X obj 298 65 inlet;
#X obj 298 91 i;
#X obj 298 114 + 1;
#X floatatom 298 139 5 0 0 0 - - -;
#X obj 298 163 outlet;
#X obj 346 65 inlet;
#X obj 346 91 i;
#X obj 346 114 + 1;
#X floatatom 346 139 5 0 0 0 - - -;
#X obj 346 163 outlet;
#X obj 399 65 inlet;
#X obj 399 91 i;
#X obj 399 114 + 1;
#X floatatom 399 139 5 0 0 0 - - -;
#X obj 399 163 outlet;
#X obj 447 65 inlet;
#X obj 447 91 i;
#X obj 447 114 + 1;
#X floatatom 447 139 5 0 0 0 - - -;
#X obj 447 163 outlet;
#X obj 500 65 inlet;
#X obj 500 91 i;
#X obj 500 114 + 1;
#X floatatom 500 139 5 0 0 0 - - -;
#X obj 500 163 outlet;
#X obj 547 65 inlet;
#X obj 547 91 i;
#X obj 547 114 + 1;
#X floatatom 547 139 5 0 0 0 - - -;
#X obj 547 163 outlet;
#X obj 593 64 inlet;
#X obj 593 90 i;
#X obj 593 113 + 1;
#X floatatom 593 138 5 0 0 0 - - -;
#X obj 593 162 outlet;
#X obj 638 64 inlet;
#X obj 638 90 i;
#X obj 638 113 + 1;
#X floatatom 638 138 5 0 0 0 - - -;
#X obj 638 162 outlet;
#X obj 691 64 inlet;
#X obj 691 90 i;
#X obj 691 113 + 1;
#X floatatom 691 138 5 0 0 0 - - -;
#X obj 691 162 outlet;
#X obj 739 64 inlet;
#X obj 739 90 i;
#X obj 739 113 + 1;
#X floatatom 739 138 5 0 0 0 - - -;
#X obj 739 162 outlet;
#X obj 792 64 inlet;
#X obj 792 90 i;
#X obj 792 113 + 1;
#X floatatom 792 138 5 0 0 0 - - -;
#X obj 792 162 outlet;
#X obj 839 64 inlet;
#X obj 839 90 i;
#X obj 839 113 + 1;
#X floatatom 839 138 5 0 0 0 - - -;
#X obj 839 162 outlet;
#X obj 885 63 inlet;
#X obj 885 89 i;
#X obj 885 112 + 1;
#X floatatom 885 137 5 0 0 0 - - -;
#X obj 885 161 outlet;
#X obj 933 63 inlet;
#X obj 933 89 i;
#X obj 933 112 + 1;
#X floatatom 933 137 5 0 0 0 - - -;
#X obj 933 161 outlet;
#X obj 986 63 inlet;
#X obj 986 89 i;
#X obj 986 112 + 1;
#X floatatom 986 137 5 0 0 0 - - -;
#X obj 986 161 outlet;
#X connect 0 0 1 0;
#X connect 1 0 2 0;
#X connect 2 0 1 1;
#X connect 2 0 3 0;
#X connect 3 0 4 0;
#X connect 5 0 6 0;
#X connect 6 0 7 0;
#X connect 7 0 6 1;
#X connect 7 0 8 0;
#X connect 8 0 9 0;
#X connect 10 0 11 0;
#X connect 11 0 12 0;
#X connect 12 0 11 1;
#X connect 12 0 13 0;
#X connect 13 0 14 0;
#X connect 15 0 16 0;
#X connect 16 0 17 0;
#X connect 17 0 16 1;
#X connect 17 0 18 0;
#X connect 18 0 19 0;
#X connect 20 0 21 0;
#X connect 21 0 22 0;
#X connect 22 0 21 1;
#X connect 22 0 23 0;
#X connect 23 0 24 0;
#X connect 25 0 26 0;
#X connect 26 0 27 0;
#X connect 27 0 26 1;
#X connect 27 0 28 0;
#X connect 28 0 29 0;
#X connect 30 0 31 0;
#X connect 31 0 32 0;
#X connect 32 0 31 1;
#X connect 32 0 33 0;
#X connect 33 0 34 0;
#X connect 35 0 36 0;
#X connect 36 0 37 0;
#X connect 37 0 36 1;
#X connect 37 0 38 0;
#X connect 38 0 39 0;
#X connect 40 0 41 0;
#X connect 41 0 42 0;
#X connect 42 0 41 1;
#X connect 42 0 43 0;
#X connect 43 0 44 0;
#X connect 45 0 46 0;
#X connect 46 0 47 0;
#X connect 47 0 46 1;
#X connect 47 0 48 0;
#X connect 48 0 49 0;
#X connect 50 0 51 0;
#X connect 51 0 52 0;
#X connect 52 0 51 1;
#X connect 52 0 53 0;
#X connect 53 0 54 0;
#X connect 55 0 56 0;
#X connect 56 0 57 0;
#X connect 57 0 56 1;
#X connect 57 0 58 0;
#X connect 58 0 59 0;
#X connect 60 0 61 0;
#X connect 61 0 62 0;
#X connect 62 0 61 1;
#X connect 62 0 63 0;
#X connect 63 0 64 0;
#X connect 65 0 66 0;
#X connect 66 0 67 0;
#X connect 67 0 66 1;
#X connect 67 0 68 0;
#X connect 68 0 69 0;
#X connect 70 0 71 0;
#X connect 71 0 72 0;
#X connect 72 0 71 1;
#X connect 72 0 73 0;
#X connect 73 0 74 0;
#X connect 75 0 76 0;
#X connect 76 0 77 0;
#X connect 77 0 76 1;
#X connect 77 0 78 0;
#X connect 78 0 79 0;
#X connect 80 0 81 0;
#X connect 81 0 82 0;
#X connect 82 0 81 1;
#X connect 82 0 83 0;
#X connect 83 0 84 0;
#X connect 85 0 86 0;
#X connect 86 0 87 0;
#X connect 87 0 86 1;
#X connect 87 0 88 0;
#X connect 88 0 89 0;
#X connect 90 0 91 0;
#X connect 91 0 92 0;
#X connect 92 0 91 1;
#X connect 92 0 93 0;
#X connect 93 0 94 0;
#X connect 95 0 96 0;
#X connect 96 0 97 0;
#X connect 97 0 96 1;
#X connect 97 0 98 0;
#X connect 98 0 99 0;
#X restore 291 212 pd hitCounter;
#X obj 291 771 outlet;
#X connect 0 0 1 0;
#X connect 1 0 46 0;
#X connect 1 0 44 0;
#X connect 1 1 46 1;
#X connect 1 1 44 0;
#X connect 1 2 46 2;
#X connect 1 2 44 0;
#X connect 1 3 46 3;
#X connect 1 3 44 0;
#X connect 1 4 46 4;
#X connect 1 4 44 0;
#X connect 1 5 46 5;
#X connect 1 5 44 0;
#X connect 1 6 46 6;
#X connect 1 6 44 0;
#X connect 1 7 46 7;
#X connect 1 7 44 0;
#X connect 1 8 46 8;
#X connect 1 8 44 0;
#X connect 1 9 46 9;
#X connect 1 9 44 0;
#X connect 1 10 46 10;
#X connect 1 10 44 0;
#X connect 1 11 46 11;
#X connect 1 11 44 0;
#X connect 1 12 46 12;
#X connect 1 12 44 0;
#X connect 1 13 46 13;
#X connect 1 13 44 0;
#X connect 1 14 46 14;
#X connect 1 14 44 0;
#X connect 1 15 46 15;
#X connect 1 15 44 0;
#X connect 1 16 46 16;
#X connect 1 16 44 0;
#X connect 1 17 46 17;
#X connect 1 17 44 0;
#X connect 1 18 46 18;
#X connect 1 18 44 0;
#X connect 1 19 46 19;
#X connect 1 19 44 0;
#X connect 4 0 25 0;
#X connect 5 0 25 1;
#X connect 6 0 26 1;
#X connect 7 0 27 1;
#X connect 8 0 24 1;
#X connect 9 0 28 1;
#X connect 10 0 30 1;
#X connect 11 0 31 1;
#X connect 12 0 32 1;
#X connect 13 0 29 1;
#X connect 14 0 33 1;
#X connect 15 0 35 1;
#X connect 16 0 36 1;
#X connect 17 0 37 1;
#X connect 18 0 34 1;
#X connect 19 0 38 1;
#X connect 20 0 40 1;
#X connect 21 0 41 1;
#X connect 22 0 42 1;
#X connect 23 0 39 1;
#X connect 24 0 28 0;
#X connect 25 0 26 0;
#X connect 26 0 27 0;
#X connect 27 0 24 0;
#X connect 28 0 30 0;
#X connect 29 0 33 0;
#X connect 30 0 31 0;
#X connect 31 0 32 0;
#X connect 32 0 29 0;
#X connect 33 0 35 0;
#X connect 34 0 38 0;
#X connect 35 0 36 0;
#X connect 36 0 37 0;
#X connect 37 0 34 0;
#X connect 38 0 40 0;
#X connect 39 0 43 0;
#X connect 40 0 41 0;
#X connect 41 0 42 0;
#X connect 42 0 39 0;
#X connect 43 0 47 0;
#X connect 44 0 45 0;
#X connect 45 0 25 0;
#X connect 45 1 26 0;
#X connect 45 2 27 0;
#X connect 45 3 24 0;
#X connect 45 4 28 0;
#X connect 45 5 30 0;
#X connect 45 6 31 0;
#X connect 45 7 32 0;
#X connect 45 8 29 0;
#X connect 45 9 33 0;
#X connect 45 10 35 0;
#X connect 45 11 36 0;
#X connect 45 12 37 0;
#X connect 45 13 34 0;
#X connect 45 14 38 0;
#X connect 45 15 40 0;
#X connect 45 16 41 0;
#X connect 45 17 42 0;
#X connect 46 0 4 0;
#X connect 46 1 5 0;
#X connect 46 2 6 0;
#X connect 46 3 7 0;
#X connect 46 4 8 0;
#X connect 46 5 9 0;
#X connect 46 6 10 0;
#X connect 46 7 11 0;
#X connect 46 8 12 0;
#X connect 46 9 13 0;
#X connect 46 10 14 0;
#X connect 46 11 15 0;
#X connect 46 12 16 0;
#X connect 46 13 17 0;
#X connect 46 14 18 0;
#X connect 46 15 19 0;
#X connect 46 16 20 0;
#X connect 46 17 21 0;
#X connect 46 18 22 0;
#X connect 46 19 23 0;
#X restore 371 292 pd drumBIRDWISE;
#X floatatom 371 323 8 0 0 0 - - -;
#X connect 0 0 18 0;
#X connect 0 0 22 0;
#X connect 1 0 18 0;
#X connect 1 0 22 0;
#X connect 2 0 18 0;
#X connect 2 0 22 0;
#X connect 3 0 18 0;
#X connect 3 0 22 0;
#X connect 4 0 18 0;
#X connect 4 0 22 0;
#X connect 5 0 18 0;
#X connect 5 0 22 0;
#X connect 6 0 18 0;
#X connect 6 0 22 0;
#X connect 7 0 18 0;
#X connect 7 0 22 0;
#X connect 8 0 18 0;
#X connect 8 0 22 0;
#X connect 9 0 18 0;
#X connect 9 0 22 0;
#X connect 10 0 18 0;
#X connect 10 0 22 0;
#X connect 11 0 18 0;
#X connect 11 0 22 0;
#X connect 12 0 18 0;
#X connect 12 0 22 0;
#X connect 13 0 18 0;
#X connect 13 0 22 0;
#X connect 14 0 18 0;
#X connect 14 0 22 0;
#X connect 15 0 18 0;
#X connect 15 0 22 0;
#X connect 18 0 19 0;
#X connect 19 0 17 0;
#X connect 22 0 23 0;
#X connect 23 0 21 0;
#X restore 316 -216 pd hitCountDrums;
#X obj 453 -235 cnv 15 100 100 empty empty empty 20 12 0 14 -162280
-66577 0;
#N canvas 121 67 1144 745 sums 0;
#X obj 243 27 r drmHRDVSION;
#X obj 586 28 r drmBIRDWISE;
#X obj 671 28 r rhyBIRDWISE;
#X obj 328 27 r rhyHRDVSION;
#X obj 757 28 r melBIRDWISE;
#X obj 413 27 r melHRDVSION;
#X obj 585 -30 cnv 15 100 50 empty empty empty 20 12 0 14 -258113 -66577
0;
#X text 608 -13 BIRDWISE;
#X obj 242 -30 cnv 15 100 50 empty empty empty 20 12 0 14 -258113 -66577
0;
#X text 265 -13 HRDVSION;
#X floatatom 243 55 5 0 0 0 - - -;
#X floatatom 328 56 5 0 0 0 - - -;
#X floatatom 413 56 5 0 0 0 - - -;
#X floatatom 586 55 5 0 0 0 - - -;
#X floatatom 671 55 5 0 0 0 - - -;
#X floatatom 757 55 5 0 0 0 - - -;
#X obj 671 80 * 32;
#X obj 757 79 * 32;
#X obj 328 81 * 32;
#X obj 413 80 * 32;
#X obj 586 162 +;
#X obj 586 185 +;
#X msg 592 108 bang;
#X floatatom 586 208 10 0 0 0 - - -;
#X obj 550 134 t b b;
#X obj 243 164 +;
#X obj 243 187 +;
#X msg 248 108 bang;
#X floatatom 243 208 10 0 0 0 - - -;
#X obj 209 133 t b b;
#X floatatom 328 105 8 0 0 0 - - -;
#X floatatom 413 105 8 0 0 0 - - -;
#X floatatom 671 106 8 0 0 0 - - -;
#X floatatom 757 106 8 0 0 0 - - -;
#X obj 95 224 +;
#X msg 95 125 bang;
#X floatatom 95 311 10 0 0 0 - - -;
#X obj 243 400 /;
#X floatatom 243 432 7 0 0 0 - - -;
#X obj 586 400 /;
#X floatatom 586 432 7 0 0 0 - - -;
#X obj 243 461 s ownHRDVSION;
#X obj 586 456 s ownBIRDWISE;
#X obj 922 -26 cnv 15 100 50 empty empty empty 20 12 0 14 -258113 -66577
0;
#X floatatom 923 57 5 0 0 0 - - -;
#X floatatom 984 57 5 0 0 0 - - -;
#X floatatom 1048 57 5 0 0 0 - - -;
#X obj 984 81 * 32;
#X obj 1048 80 * 32;
#X obj 923 164 +;
#X obj 923 187 +;
#X msg 930 108 bang;
#X floatatom 923 241 10 0 0 0 - - -;
#X obj 886 134 t b b;
#X floatatom 984 103 8 0 0 0 - - -;
#X floatatom 1048 103 8 0 0 0 - - -;
#X obj 923 400 /;
#X floatatom 923 432 7 0 0 0 - - -;
#X text 959 -9 TLL;
#X obj 923 456 s ownTLL;
#X obj 923 32 r drmTLL;
#X obj 984 32 r rhyTLL;
#X obj 1048 32 r melTLL;
#X obj 95 257 +;
#X obj 95 193 t b b b;
#X obj 253 238 s secHRDVSION;
#X obj 595 238 s secBIRDWISE;
#X msg 38 310 60000;
#X obj 42 -22 cnv 15 100 50 empty empty empty 20 12 0 14 -258113 -66577
0;
#X text 59 -5 the memelab;
#X obj 38 345 +;
#X floatatom 38 369 10 0 0 0 - - -;
#X obj 23 411 /;
#X floatatom 23 443 7 0 0 0 - - -;
#X obj 23 472 s ownMEME;
#X obj 938 270 s secTLL;
#X msg 113 453 20.56;
#X obj 113 479 * 0.8;
#X floatatom 113 507 5 0 0 0 - - -;
#X obj 113 422 loadbang;
#X obj 8 607 s cdnMEME;
#X obj 228 607 s cdnHRDVSION;
#X obj 908 631 s cdnTLL;
#X obj 571 620 s cdnBIRDWISE;
#X obj 8 562 *;
#X floatatom 8 582 5 0 0 0 - - -;
#X obj 228 562 *;
#X floatatom 228 582 4 0 0 0 - - -;
#X obj 571 572 *;
#X floatatom 571 592 4 0 0 0 - - -;
#X obj 908 586 *;
#X floatatom 908 606 4 0 0 0 - - -;
#X connect 0 0 10 0;
#X connect 0 0 27 0;
#X connect 1 0 13 0;
#X connect 1 0 22 0;
#X connect 2 0 14 0;
#X connect 2 0 22 0;
#X connect 3 0 11 0;
#X connect 3 0 27 0;
#X connect 4 0 15 0;
#X connect 4 0 22 0;
#X connect 5 0 12 0;
#X connect 5 0 27 0;
#X connect 10 0 25 0;
#X connect 11 0 18 0;
#X connect 12 0 19 0;
#X connect 13 0 20 0;
#X connect 14 0 16 0;
#X connect 15 0 17 0;
#X connect 16 0 32 0;
#X connect 17 0 33 0;
#X connect 18 0 30 0;
#X connect 19 0 31 0;
#X connect 20 0 21 0;
#X connect 21 0 23 0;
#X connect 22 0 24 0;
#X connect 22 0 35 0;
#X connect 23 0 34 1;
#X connect 23 0 39 0;
#X connect 23 0 66 0;
#X connect 24 0 20 0;
#X connect 24 1 20 0;
#X connect 25 0 26 0;
#X connect 26 0 28 0;
#X connect 27 0 29 0;
#X connect 27 0 35 0;
#X connect 28 0 34 0;
#X connect 28 0 37 0;
#X connect 28 0 65 0;
#X connect 29 0 25 0;
#X connect 29 1 25 0;
#X connect 30 0 25 1;
#X connect 31 0 26 1;
#X connect 32 0 20 1;
#X connect 33 0 21 1;
#X connect 34 0 63 0;
#X connect 35 0 37 0;
#X connect 35 0 56 0;
#X connect 35 0 64 0;
#X connect 35 0 67 0;
#X connect 35 0 84 0;
#X connect 35 0 86 0;
#X connect 35 0 88 0;
#X connect 35 0 90 0;
#X connect 36 0 70 1;
#X connect 37 0 38 0;
#X connect 38 0 41 0;
#X connect 38 0 86 1;
#X connect 39 0 40 0;
#X connect 40 0 42 0;
#X connect 40 0 88 1;
#X connect 44 0 49 0;
#X connect 45 0 47 0;
#X connect 46 0 48 0;
#X connect 47 0 54 0;
#X connect 48 0 55 0;
#X connect 49 0 50 0;
#X connect 50 0 52 0;
#X connect 51 0 53 0;
#X connect 51 0 35 0;
#X connect 52 0 56 0;
#X connect 52 0 63 1;
#X connect 52 0 75 0;
#X connect 53 0 49 0;
#X connect 53 1 49 0;
#X connect 54 0 49 1;
#X connect 55 0 50 1;
#X connect 56 0 57 0;
#X connect 57 0 59 0;
#X connect 57 0 90 1;
#X connect 60 0 44 0;
#X connect 60 0 51 0;
#X connect 61 0 45 0;
#X connect 61 0 51 0;
#X connect 62 0 46 0;
#X connect 62 0 51 0;
#X connect 63 0 36 0;
#X connect 64 0 34 0;
#X connect 64 1 34 0;
#X connect 64 2 63 0;
#X connect 67 0 70 0;
#X connect 67 0 72 0;
#X connect 70 0 71 0;
#X connect 71 0 37 1;
#X connect 71 0 39 1;
#X connect 71 0 56 1;
#X connect 71 0 72 1;
#X connect 72 0 73 0;
#X connect 73 0 74 0;
#X connect 73 0 84 1;
#X connect 76 0 77 0;
#X connect 77 0 78 0;
#X connect 78 0 84 0;
#X connect 78 0 86 0;
#X connect 78 0 88 0;
#X connect 78 0 90 0;
#X connect 79 0 76 0;
#X connect 84 0 85 0;
#X connect 85 0 80 0;
#X connect 86 0 87 0;
#X connect 87 0 81 0;
#X connect 88 0 89 0;
#X connect 89 0 83 0;
#X connect 90 0 91 0;
#X connect 91 0 82 0;
#X restore 468 -217 pd sums;
#N canvas 797 22 968 1122 GEMgraph 0;
#X obj 146 -23 r ownBIRDWISE;
#X obj 50 -24 r ownHRDVSION;
#X obj 369 53 gemwin;
#X msg 385 -23 destroy;
#X msg 369 -46 create;
#X obj 395 -1 tgl 15 0 empty empty empty 0 -6 0 10 -262144 -1 -1 0
1;
#X obj 78 84 gemhead;
#X floatatom 50 14 10 0 0 0 - - -;
#X floatatom 146 14 10 0 0 0 - - -;
#X obj 78 196 translateXYZ;
#X msg 93 220 text HRDVSION;
#X msg 398 26 dimen 1280 1024;
#X obj 78 283 text2d;
#X floatatom 239 14 10 0 0 0 - - -;
#X obj 239 -23 r ownTLL;
#X floatatom 93 128 5 0 0 0 - - -;
#X floatatom 112 148 5 0 0 0 - - -;
#X floatatom 155 145 5 0 0 0 - - -;
#X floatatom 113 256 5 0 0 0 - - -;
#X obj 78 379 translateXYZ;
#X obj 78 465 text2d;
#X floatatom 93 311 5 0 0 0 - - -;
#X floatatom 112 331 5 0 0 0 - - -;
#X floatatom 155 328 5 0 0 0 - - -;
#X floatatom 113 438 5 0 0 0 - - -;
#X msg 93 403 text BIRDWISE;
#X obj 78 557 translateXYZ;
#X obj 78 645 text2d;
#X floatatom 93 489 5 0 0 0 - - -;
#X floatatom 112 509 5 0 0 0 - - -;
#X floatatom 155 506 5 0 0 0 - - -;
#X floatatom 113 618 5 0 0 0 - - -;
#X msg 93 581 text TLL;
#X obj 79 740 translateXYZ;
#X obj 79 829 text2d;
#X floatatom 94 672 5 0 0 0 - - -;
#X floatatom 113 692 5 0 0 0 - - -;
#X floatatom 156 689 5 0 0 0 - - -;
#X floatatom 114 802 5 0 0 0 - - -;
#X msg 94 764 text memelab;
#X msg 417 4 dimen 640 512;
#X obj 268 175 translateXYZ;
#X obj 268 251 text2d;
#X floatatom 291 127 5 0 0 0 - - -;
#X floatatom 310 147 5 0 0 0 - - -;
#X floatatom 353 144 5 0 0 0 - - -;
#X floatatom 303 224 5 0 0 0 - - -;
#X obj 268 320 translateXYZ;
#X obj 268 395 text2d;
#X floatatom 291 272 5 0 0 0 - - -;
#X floatatom 310 292 5 0 0 0 - - -;
#X floatatom 353 289 5 0 0 0 - - -;
#X floatatom 303 368 5 0 0 0 - - -;
#X obj 268 465 translateXYZ;
#X obj 268 545 text2d;
#X floatatom 291 417 5 0 0 0 - - -;
#X floatatom 310 437 5 0 0 0 - - -;
#X floatatom 353 434 5 0 0 0 - - -;
#X floatatom 303 518 5 0 0 0 - - -;
#X obj 268 617 translateXYZ;
#X obj 268 698 text2d;
#X floatatom 291 569 5 0 0 0 - - -;
#X floatatom 310 589 5 0 0 0 - - -;
#X floatatom 353 586 5 0 0 0 - - -;
#X floatatom 303 671 5 0 0 0 - - -;
#X obj 268 780 translateXYZ;
#X obj 268 858 text2d;
#X floatatom 291 732 5 0 0 0 - - -;
#X floatatom 310 752 5 0 0 0 - - -;
#X floatatom 353 749 5 0 0 0 - - -;
#X floatatom 303 831 5 0 0 0 - - -;
#X msg 283 804 text Percentage;
#X msg 283 641 text Melodies;
#X msg 283 489 text Rythyms;
#X msg 283 344 text Drums;
#X msg 283 199 text Seconds;
#X obj 268 940 translateXYZ;
#X obj 268 1018 text2d;
#X floatatom 291 892 5 0 0 0 - - -;
#X floatatom 310 912 5 0 0 0 - - -;
#X floatatom 353 909 5 0 0 0 - - -;
#X floatatom 303 991 5 0 0 0 - - -;
#X msg 283 964 text $CDN;
#X obj 473 184 translateXYZ;
#X obj 473 262 text2d;
#X floatatom 496 136 5 0 0 0 - - -;
#X floatatom 515 156 5 0 0 0 - - -;
#X floatatom 558 153 5 0 0 0 - - -;
#X floatatom 508 235 5 0 0 0 - - -;
#X msg 488 208 text foo;
#X obj 473 342 translateXYZ;
#X obj 473 420 text2d;
#X floatatom 496 294 5 0 0 0 - - -;
#X floatatom 515 314 5 0 0 0 - - -;
#X floatatom 558 311 5 0 0 0 - - -;
#X floatatom 508 393 5 0 0 0 - - -;
#X msg 488 366 text foo;
#X obj 476 497 translateXYZ;
#X obj 476 575 text2d;
#X floatatom 499 449 5 0 0 0 - - -;
#X floatatom 518 469 5 0 0 0 - - -;
#X floatatom 561 466 5 0 0 0 - - -;
#X floatatom 511 548 5 0 0 0 - - -;
#X msg 491 521 text foo;
#X obj 476 646 translateXYZ;
#X obj 476 724 text2d;
#X floatatom 499 598 5 0 0 0 - - -;
#X floatatom 518 618 5 0 0 0 - - -;
#X floatatom 561 615 5 0 0 0 - - -;
#X floatatom 511 697 5 0 0 0 - - -;
#X msg 491 670 text foo;
#X obj 476 795 translateXYZ;
#X obj 476 873 text2d;
#X floatatom 499 747 5 0 0 0 - - -;
#X floatatom 518 767 5 0 0 0 - - -;
#X floatatom 561 764 5 0 0 0 - - -;
#X floatatom 511 846 5 0 0 0 - - -;
#X msg 491 819 text foo;
#X obj 478 942 translateXYZ;
#X obj 478 1020 text2d;
#X floatatom 501 894 5 0 0 0 - - -;
#X floatatom 520 914 5 0 0 0 - - -;
#X floatatom 563 911 5 0 0 0 - - -;
#X floatatom 513 993 5 0 0 0 - - -;
#X msg 493 966 text foo;
#X obj 649 174 translateXYZ;
#X obj 649 252 text2d;
#X floatatom 672 126 5 0 0 0 - - -;
#X floatatom 691 146 5 0 0 0 - - -;
#X floatatom 734 143 5 0 0 0 - - -;
#X floatatom 684 225 5 0 0 0 - - -;
#X msg 664 198 text foo;
#X obj 649 332 translateXYZ;
#X obj 649 410 text2d;
#X floatatom 672 284 5 0 0 0 - - -;
#X floatatom 691 304 5 0 0 0 - - -;
#X floatatom 734 301 5 0 0 0 - - -;
#X floatatom 684 383 5 0 0 0 - - -;
#X msg 664 356 text foo;
#X obj 652 487 translateXYZ;
#X obj 652 565 text2d;
#X floatatom 675 439 5 0 0 0 - - -;
#X floatatom 694 459 5 0 0 0 - - -;
#X floatatom 737 456 5 0 0 0 - - -;
#X floatatom 687 538 5 0 0 0 - - -;
#X msg 667 511 text foo;
#X obj 652 636 translateXYZ;
#X obj 652 714 text2d;
#X floatatom 675 588 5 0 0 0 - - -;
#X floatatom 694 608 5 0 0 0 - - -;
#X floatatom 737 605 5 0 0 0 - - -;
#X floatatom 687 687 5 0 0 0 - - -;
#X msg 667 660 text foo;
#X obj 652 785 translateXYZ;
#X obj 652 863 text2d;
#X floatatom 675 737 5 0 0 0 - - -;
#X floatatom 694 757 5 0 0 0 - - -;
#X floatatom 737 754 5 0 0 0 - - -;
#X floatatom 687 836 5 0 0 0 - - -;
#X msg 667 809 text foo;
#X obj 654 932 translateXYZ;
#X obj 654 1010 text2d;
#X floatatom 677 884 5 0 0 0 - - -;
#X floatatom 696 904 5 0 0 0 - - -;
#X floatatom 739 901 5 0 0 0 - - -;
#X floatatom 689 983 5 0 0 0 - - -;
#X msg 669 956 text foo;
#X connect 0 0 8 0;
#X connect 1 0 7 0;
#X connect 2 0 6 0;
#X connect 3 0 2 0;
#X connect 4 0 2 0;
#X connect 5 0 2 0;
#X connect 6 0 9 0;
#X connect 9 0 12 0;
#X connect 10 0 12 0;
#X connect 11 0 2 0;
#X connect 12 0 19 0;
#X connect 14 0 13 0;
#X connect 15 0 9 1;
#X connect 16 0 9 2;
#X connect 17 0 9 3;
#X connect 18 0 12 1;
#X connect 19 0 20 0;
#X connect 20 0 26 0;
#X connect 21 0 19 1;
#X connect 22 0 19 2;
#X connect 23 0 19 3;
#X connect 24 0 20 1;
#X connect 25 0 20 0;
#X connect 26 0 27 0;
#X connect 27 0 33 0;
#X connect 28 0 26 1;
#X connect 29 0 26 2;
#X connect 30 0 26 3;
#X connect 31 0 27 1;
#X connect 32 0 27 0;
#X connect 33 0 34 0;
#X connect 34 0 41 0;
#X connect 35 0 33 1;
#X connect 36 0 33 2;
#X connect 37 0 33 3;
#X connect 38 0 34 1;
#X connect 39 0 34 0;
#X connect 40 0 2 0;
#X connect 41 0 42 0;
#X connect 42 0 47 0;
#X connect 43 0 41 1;
#X connect 44 0 41 2;
#X connect 45 0 41 3;
#X connect 46 0 42 1;
#X connect 47 0 48 0;
#X connect 48 0 53 0;
#X connect 49 0 47 1;
#X connect 50 0 47 2;
#X connect 51 0 47 3;
#X connect 52 0 48 1;
#X connect 53 0 54 0;
#X connect 54 0 59 0;
#X connect 55 0 53 1;
#X connect 56 0 53 2;
#X connect 57 0 53 3;
#X connect 58 0 54 1;
#X connect 59 0 60 0;
#X connect 60 0 65 0;
#X connect 61 0 59 1;
#X connect 62 0 59 2;
#X connect 63 0 59 3;
#X connect 64 0 60 1;
#X connect 65 0 66 0;
#X connect 66 0 76 0;
#X connect 67 0 65 1;
#X connect 68 0 65 2;
#X connect 69 0 65 3;
#X connect 70 0 66 1;
#X connect 71 0 66 0;
#X connect 72 0 60 0;
#X connect 73 0 54 0;
#X connect 74 0 48 0;
#X connect 75 0 42 0;
#X connect 76 0 77 0;
#X connect 78 0 76 1;
#X connect 79 0 76 2;
#X connect 80 0 76 3;
#X connect 81 0 77 1;
#X connect 82 0 77 0;
#X connect 83 0 84 0;
#X connect 84 0 90 0;
#X connect 85 0 83 1;
#X connect 86 0 83 2;
#X connect 87 0 83 3;
#X connect 88 0 84 1;
#X connect 89 0 84 0;
#X connect 90 0 91 0;
#X connect 91 0 97 0;
#X connect 92 0 90 1;
#X connect 93 0 90 2;
#X connect 94 0 90 3;
#X connect 95 0 91 1;
#X connect 96 0 91 0;
#X connect 97 0 98 0;
#X connect 98 0 104 0;
#X connect 99 0 97 1;
#X connect 100 0 97 2;
#X connect 101 0 97 3;
#X connect 102 0 98 1;
#X connect 103 0 98 0;
#X connect 104 0 105 0;
#X connect 105 0 111 0;
#X connect 106 0 104 1;
#X connect 107 0 104 2;
#X connect 108 0 104 3;
#X connect 109 0 105 1;
#X connect 110 0 105 0;
#X connect 111 0 112 0;
#X connect 112 0 118 0;
#X connect 113 0 111 1;
#X connect 114 0 111 2;
#X connect 115 0 111 3;
#X connect 116 0 112 1;
#X connect 117 0 112 0;
#X connect 118 0 119 0;
#X connect 120 0 118 1;
#X connect 121 0 118 2;
#X connect 122 0 118 3;
#X connect 123 0 119 1;
#X connect 124 0 119 0;
#X connect 125 0 126 0;
#X connect 126 0 132 0;
#X connect 127 0 125 1;
#X connect 128 0 125 2;
#X connect 129 0 125 3;
#X connect 130 0 126 1;
#X connect 131 0 126 0;
#X connect 132 0 133 0;
#X connect 133 0 139 0;
#X connect 134 0 132 1;
#X connect 135 0 132 2;
#X connect 136 0 132 3;
#X connect 137 0 133 1;
#X connect 138 0 133 0;
#X connect 139 0 140 0;
#X connect 140 0 146 0;
#X connect 141 0 139 1;
#X connect 142 0 139 2;
#X connect 143 0 139 3;
#X connect 144 0 140 1;
#X connect 145 0 140 0;
#X connect 146 0 147 0;
#X connect 147 0 153 0;
#X connect 148 0 146 1;
#X connect 149 0 146 2;
#X connect 150 0 146 3;
#X connect 151 0 147 1;
#X connect 152 0 147 0;
#X connect 153 0 154 0;
#X connect 154 0 160 0;
#X connect 155 0 153 1;
#X connect 156 0 153 2;
#X connect 157 0 153 3;
#X connect 158 0 154 1;
#X connect 159 0 154 0;
#X connect 160 0 161 0;
#X connect 162 0 160 1;
#X connect 163 0 160 2;
#X connect 164 0 160 3;
#X connect 165 0 161 1;
#X connect 166 0 161 0;
#X restore 467 -167 pd GEMgraph;
#N canvas 1052 258 629 713 FAUXgraph 0;
#X obj 94 83 r drmHRDVSION;
#X obj 195 192 r rhyBIRDWISE;
#X obj 94 192 r rhyHRDVSION;
#X obj 196 291 r melBIRDWISE;
#X obj 92 291 r melHRDVSION;
#X obj 310 191 r rhyTLL;
#X obj 310 291 r melTLL;
#X obj 91 489 r ownHRDVSION;
#X obj 194 491 r ownBIRDWISE;
#X obj 311 493 r ownTLL;
#X text 114 40 HRDVSION;
#X obj 78 43 tgl 15 0 empty empty empty 17 7 0 10 -258113 -1 -1 0 1
;
#X obj 489 58 tgl 15 0 empty empty empty 17 7 0 10 -258113 -1 -1 0
1;
#X text 216 41 BIRDWISE;
#X text 408 41 the memelab;
#X obj 78 651 tgl 15 0 empty empty empty 17 7 0 10 -258113 -1 -1 0
1;
#X text 44 91 DRUMS;
#X text 34 196 RYTHYMS;
#X text 29 296 MELODIES;
#X obj 489 666 tgl 15 0 empty empty empty 17 7 0 10 -258113 -1 -1 0
1;
#X text 15 502 PERCENTAGE;
#X text 35 399 SECONDS;
#X obj 180 42 tgl 15 0 empty empty empty 17 7 0 10 -258113 -1 -1 0
1;
#X obj 282 43 tgl 15 0 empty empty empty 17 7 0 10 -258113 -1 -1 0
1;
#X obj 384 43 tgl 15 0 empty empty empty 17 7 0 10 -258113 -1 -1 0
1;
#X obj 180 667 tgl 15 0 empty empty empty 17 7 0 10 -258113 -1 -1 0
1;
#X obj 282 667 tgl 15 0 empty empty empty 17 7 0 10 -258113 -1 -1 0
1;
#X obj 384 667 tgl 15 0 empty empty empty 17 7 0 10 -258113 -1 -1 0
1;
#X text 300 41 TREVOR LARSON;
#X obj 492 160 tgl 15 0 empty empty empty 17 7 0 10 -258113 -1 -1 0
1;
#X obj 66 145 tgl 15 0 empty empty empty 17 7 0 10 -258113 -1 -1 0
1;
#X obj 492 262 tgl 15 0 empty empty empty 17 7 0 10 -258113 -1 -1 0
1;
#X obj 66 247 tgl 15 0 empty empty empty 17 7 0 10 -258113 -1 -1 0
1;
#X obj 492 362 tgl 15 0 empty empty empty 17 7 0 10 -258113 -1 -1 0
1;
#X obj 66 347 tgl 15 0 empty empty empty 17 7 0 10 -258113 -1 -1 0
1;
#X obj 492 464 tgl 15 0 empty empty empty 17 7 0 10 -258113 -1 -1 0
1;
#X obj 66 449 tgl 15 0 empty empty empty 17 7 0 10 -258113 -1 -1 0
1;
#X obj 492 564 tgl 15 0 empty empty empty 17 7 0 10 -258113 -1 -1 0
1;
#X obj 66 549 tgl 15 0 empty empty empty 17 7 0 10 -258113 -1 -1 0
1;
#X text 15 602 ROYALTIES;
#X floatatom 94 119 8 0 0 0 - - -;
#X floatatom 196 119 8 0 0 0 - - -;
#X obj 196 83 r drmBIRDWISE;
#X obj 311 83 r drmTLL;
#X floatatom 311 119 8 0 0 0 - - -;
#X obj 195 389 r secBIRDWISE;
#X obj 92 389 r secHRDVSION;
#X obj 310 388 r secTLL;
#X msg 422 388 60000;
#X floatatom 94 221 8 0 0 0 - - -;
#X floatatom 195 222 8 0 0 0 - - -;
#X floatatom 310 225 8 0 0 0 - - -;
#X floatatom 92 330 8 0 0 0 - - -;
#X floatatom 196 327 8 0 0 0 - - -;
#X floatatom 310 328 8 0 0 0 - - -;
#X floatatom 92 423 8 0 0 0 - - -;
#X floatatom 195 423 8 0 0 0 - - -;
#X floatatom 310 422 8 0 0 0 - - -;
#X floatatom 91 527 8 0 0 0 - - -;
#X floatatom 194 529 8 0 0 0 - - -;
#X floatatom 311 530 8 0 0 0 - - -;
#X obj 413 491 r ownMEME;
#X floatatom 413 526 8 0 0 0 - - -;
#X floatatom 95 629 5 0 0 0 - - -;
#X floatatom 197 630 5 0 0 0 - - -;
#X floatatom 316 629 5 0 0 0 - - -;
#X floatatom 415 627 5 0 0 0 - - -;
#X obj 95 591 r cdnHRDVSION;
#X obj 197 592 r cdnBIRDWISE;
#X obj 316 592 r cdnTLL;
#X obj 415 592 r cdnMEME;
#X text 403 626 $;
#X text 302 628 $;
#X text 184 630 $;
#X text 84 628 $;
#X connect 0 0 40 0;
#X connect 1 0 50 0;
#X connect 2 0 49 0;
#X connect 3 0 53 0;
#X connect 4 0 52 0;
#X connect 5 0 51 0;
#X connect 6 0 54 0;
#X connect 7 0 58 0;
#X connect 8 0 59 0;
#X connect 9 0 60 0;
#X connect 11 0 12 0;
#X connect 11 0 15 0;
#X connect 12 0 19 0;
#X connect 15 0 19 0;
#X connect 22 0 25 0;
#X connect 23 0 26 0;
#X connect 24 0 27 0;
#X connect 30 0 29 0;
#X connect 32 0 31 0;
#X connect 34 0 33 0;
#X connect 36 0 35 0;
#X connect 38 0 37 0;
#X connect 42 0 41 0;
#X connect 43 0 44 0;
#X connect 45 0 56 0;
#X connect 46 0 55 0;
#X connect 47 0 57 0;
#X connect 61 0 62 0;
#X connect 67 0 63 0;
#X connect 68 0 64 0;
#X connect 69 0 65 0;
#X connect 70 0 66 0;
#X restore 468 -192 pd FAUXgraph;
#X obj -3 -203 loadbang;
#X connect 0 0 26 0;
#X connect 2 0 0 0;
#X connect 3 0 21 0;
#X connect 4 0 21 1;
#X connect 5 0 21 2;
#X connect 6 0 21 3;
#X connect 7 0 21 4;
#X connect 8 0 21 5;
#X connect 9 0 21 6;
#X connect 10 0 21 7;
#X connect 11 0 21 8;
#X connect 12 0 21 9;
#X connect 13 0 21 10;
#X connect 14 0 21 11;
#X connect 15 0 21 12;
#X connect 16 0 21 13;
#X connect 17 0 21 14;
#X connect 18 0 21 15;
#X connect 20 0 0 1;
#X connect 20 0 1 0;
#X connect 22 0 3 0;
#X connect 22 1 4 0;
#X connect 22 2 5 0;
#X connect 22 3 6 0;
#X connect 22 4 7 0;
#X connect 22 5 8 0;
#X connect 22 6 9 0;
#X connect 22 7 10 0;
#X connect 22 8 11 0;
#X connect 22 9 12 0;
#X connect 22 10 13 0;
#X connect 22 11 14 0;
#X connect 22 12 15 0;
#X connect 22 13 16 0;
#X connect 22 14 17 0;
#X connect 22 15 18 0;
#X connect 25 0 24 0;
#X connect 26 0 19 0;
#X connect 29 0 28 0;
#X connect 32 0 31 0;
#X connect 41 0 25 0;
#X connect 41 0 29 0;
#X connect 41 0 32 0;
#X connect 41 0 20 0;
#X connect 41 0 2 0;
